<svg width="600" height="220" viewBox="0 0 600 220" fill="none" xmlns="http://www.w3.org/2000/svg">
<g id="logo" clip-path="url(#clip0_1_2)">
<path id="compoDark" d="M114.6 115.24C115.56 115.88 116.12 116.72 116.28 117.76C116.44 118.72 116.2 119.68 115.56 120.64C115 121.36 114.28 121.76 113.4 121.84C112.52 121.92 111.68 121.76 110.88 121.36C107.84 119.36 104.56 117.8 101.04 116.68C97.6 115.56 93.88 115 89.88 115C85 115 80.44 115.88 76.2 117.64C72.04 119.32 68.4 121.8 65.28 125.08C62.16 128.28 59.72 132.08 57.96 136.48C56.28 140.88 55.44 145.72 55.44 151C55.44 156.44 56.32 161.4 58.08 165.88C59.84 170.28 62.28 174.08 65.4 177.28C68.6 180.48 72.28 182.92 76.44 184.6C80.6 186.28 85.08 187.12 89.88 187.12C93.8 187.12 97.48 186.56 100.92 185.44C104.44 184.32 107.72 182.8 110.76 180.88C111.56 180.4 112.4 180.24 113.28 180.4C114.24 180.48 115 180.92 115.56 181.72C116.28 182.6 116.52 183.56 116.28 184.6C116.12 185.56 115.6 186.32 114.72 186.88C112.72 188.16 110.36 189.36 107.64 190.48C104.92 191.6 102.04 192.48 99 193.12C95.96 193.84 92.92 194.2 89.88 194.2C84.12 194.2 78.72 193.16 73.68 191.08C68.64 189 64.16 186.08 60.24 182.32C56.32 178.48 53.24 173.92 51 168.64C48.84 163.36 47.76 157.48 47.76 151C47.76 144.76 48.84 139.04 51 133.84C53.16 128.56 56.16 124 60 120.16C63.84 116.32 68.32 113.32 73.44 111.16C78.56 109 84.04 107.92 89.88 107.92C94.44 107.92 98.84 108.56 103.08 109.84C107.32 111.12 111.16 112.92 114.6 115.24ZM186.998 162.28C186.998 168.36 185.678 173.84 183.038 178.72C180.398 183.52 176.798 187.32 172.238 190.12C167.678 192.84 162.478 194.2 156.638 194.2C150.958 194.2 145.798 192.84 141.158 190.12C136.598 187.32 132.958 183.52 130.238 178.72C127.598 173.84 126.278 168.36 126.278 162.28C126.278 156.12 127.598 150.64 130.238 145.84C132.958 141.04 136.598 137.24 141.158 134.44C145.798 131.64 150.958 130.24 156.638 130.24C162.478 130.24 167.678 131.64 172.238 134.44C176.798 137.24 180.398 141.04 183.038 145.84C185.678 150.64 186.998 156.12 186.998 162.28ZM179.798 162.28C179.798 157.4 178.798 153.08 176.798 149.32C174.798 145.48 172.038 142.48 168.518 140.32C165.078 138.08 161.118 136.96 156.638 136.96C152.318 136.96 148.398 138.08 144.878 140.32C141.358 142.48 138.558 145.48 136.478 149.32C134.478 153.08 133.478 157.4 133.478 162.28C133.478 167.16 134.478 171.48 136.478 175.24C138.558 179 141.358 182 144.878 184.24C148.398 186.4 152.318 187.48 156.638 187.48C161.118 187.48 165.078 186.4 168.518 184.24C172.038 182 174.798 179 176.798 175.24C178.798 171.48 179.798 167.16 179.798 162.28ZM229.9 131.2C234.86 131.2 239.1 132.52 242.62 135.16C246.14 137.72 248.54 141.56 249.82 146.68L248.14 147.16L248.86 145C249.9 142.6 251.62 140.36 254.02 138.28C256.5 136.12 259.3 134.4 262.42 133.12C265.54 131.84 268.7 131.2 271.9 131.2C276.94 131.2 280.98 132.28 284.02 134.44C287.14 136.6 289.38 139.52 290.74 143.2C292.18 146.8 292.9 150.88 292.9 155.44V189.4C292.9 190.36 292.54 191.2 291.82 191.92C291.18 192.64 290.34 193 289.3 193C288.26 193 287.38 192.64 286.66 191.92C286.02 191.2 285.7 190.36 285.7 189.4V155.8C285.7 152.52 285.18 149.52 284.14 146.8C283.1 144.08 281.46 141.92 279.22 140.32C276.98 138.72 273.98 137.92 270.22 137.92C266.94 137.92 263.78 138.72 260.74 140.32C257.78 141.92 255.34 144.08 253.42 146.8C251.58 149.52 250.66 152.52 250.66 155.8V189.4C250.66 190.36 250.3 191.2 249.58 191.92C248.94 192.64 248.1 193 247.06 193C246.02 193 245.14 192.64 244.42 191.92C243.78 191.2 243.46 190.36 243.46 189.4V155.44C243.46 152.16 242.98 149.2 242.02 146.56C241.06 143.92 239.5 141.84 237.34 140.32C235.18 138.72 232.26 137.92 228.58 137.92C225.3 137.92 222.18 138.72 219.22 140.32C216.34 141.84 213.98 143.92 212.14 146.56C210.38 149.2 209.5 152.16 209.5 155.44V189.4C209.5 190.36 209.14 191.2 208.42 191.92C207.7 192.64 206.86 193 205.9 193C204.78 193 203.9 192.64 203.26 191.92C202.62 191.2 202.3 190.36 202.3 189.4V135.64C202.3 134.68 202.62 133.84 203.26 133.12C203.98 132.4 204.86 132.04 205.9 132.04C206.94 132.04 207.78 132.4 208.42 133.12C209.14 133.84 209.5 134.68 209.5 135.64V146.8L206.26 151.24C206.5 148.84 207.26 146.44 208.54 144.04C209.9 141.64 211.66 139.48 213.82 137.56C215.98 135.64 218.42 134.12 221.14 133C223.94 131.8 226.86 131.2 229.9 131.2ZM340.913 131.2C346.353 131.2 351.153 132.56 355.313 135.28C359.553 137.92 362.913 141.6 365.393 146.32C367.873 150.96 369.113 156.32 369.113 162.4C369.113 168.48 367.873 173.88 365.393 178.6C362.913 183.32 359.553 187.04 355.313 189.76C351.073 192.48 346.313 193.84 341.033 193.84C338.233 193.84 335.553 193.44 332.993 192.64C330.513 191.76 328.233 190.6 326.153 189.16C324.073 187.72 322.233 186.04 320.633 184.12C319.033 182.12 317.753 179.96 316.793 177.64L318.953 176.08V213.4C318.953 214.36 318.593 215.2 317.873 215.92C317.233 216.64 316.393 217 315.353 217C314.313 217 313.433 216.64 312.713 215.92C312.073 215.2 311.753 214.36 311.753 213.4V135.16C311.753 134.12 312.073 133.24 312.713 132.52C313.353 131.8 314.233 131.44 315.353 131.44C316.393 131.44 317.233 131.8 317.873 132.52C318.593 133.24 318.953 134.12 318.953 135.16V148.12L317.273 147.16C318.073 144.68 319.233 142.48 320.753 140.56C322.353 138.56 324.193 136.88 326.273 135.52C328.353 134.08 330.633 133 333.113 132.28C335.593 131.56 338.193 131.2 340.913 131.2ZM340.313 137.92C335.993 137.92 332.193 139 328.913 141.16C325.633 143.24 323.033 146.12 321.113 149.8C319.273 153.4 318.353 157.6 318.353 162.4C318.353 167.12 319.273 171.36 321.113 175.12C323.033 178.88 325.633 181.84 328.913 184C332.193 186.08 335.993 187.12 340.313 187.12C344.553 187.12 348.273 186.08 351.473 184C354.753 181.84 357.353 178.88 359.273 175.12C361.193 171.36 362.153 167.12 362.153 162.4C362.153 157.68 361.193 153.48 359.273 149.8C357.353 146.12 354.753 143.24 351.473 141.16C348.273 139 344.553 137.92 340.313 137.92ZM441.647 162.28C441.647 168.36 440.327 173.84 437.687 178.72C435.047 183.52 431.447 187.32 426.887 190.12C422.327 192.84 417.127 194.2 411.287 194.2C405.607 194.2 400.447 192.84 395.807 190.12C391.247 187.32 387.607 183.52 384.887 178.72C382.247 173.84 380.927 168.36 380.927 162.28C380.927 156.12 382.247 150.64 384.887 145.84C387.607 141.04 391.247 137.24 395.807 134.44C400.447 131.64 405.607 130.24 411.287 130.24C417.127 130.24 422.327 131.64 426.887 134.44C431.447 137.24 435.047 141.04 437.687 145.84C440.327 150.64 441.647 156.12 441.647 162.28ZM434.447 162.28C434.447 157.4 433.447 153.08 431.447 149.32C429.447 145.48 426.687 142.48 423.167 140.32C419.727 138.08 415.767 136.96 411.287 136.96C406.967 136.96 403.047 138.08 399.527 140.32C396.007 142.48 393.207 145.48 391.127 149.32C389.127 153.08 388.127 157.4 388.127 162.28C388.127 167.16 389.127 171.48 391.127 175.24C393.207 179 396.007 182 399.527 184.24C403.047 186.4 406.967 187.48 411.287 187.48C415.767 187.48 419.727 186.4 423.167 184.24C426.687 182 429.447 179 431.447 175.24C433.447 171.48 434.447 167.16 434.447 162.28ZM457.909 193C456.549 193 455.509 192.56 454.789 191.68C454.069 190.8 453.709 189.68 453.709 188.32V185.8C453.709 184.36 454.069 183.24 454.789 182.44C455.509 181.64 456.549 181.24 457.909 181.24H458.749C460.109 181.24 461.149 181.64 461.869 182.44C462.589 183.24 462.949 184.36 462.949 185.8V188.32C462.949 189.68 462.589 190.8 461.869 191.68C461.149 192.56 460.109 193 458.749 193H457.909ZM487.388 198.52C487.388 202.36 486.468 205.6 484.628 208.24C482.868 210.96 480.668 213.04 478.028 214.48C475.388 215.92 472.748 216.64 470.108 216.64C469.068 216.64 468.268 216.32 467.708 215.68C467.068 215.04 466.748 214.28 466.748 213.4V212.92C466.748 211.96 467.068 211.2 467.708 210.64C468.348 210.08 469.068 209.72 469.868 209.56C471.708 209.16 473.388 208.48 474.908 207.52C476.508 206.56 477.788 205.24 478.748 203.56C479.708 201.88 480.188 199.84 480.188 197.44V135.52C480.188 134.56 480.508 133.72 481.148 133C481.868 132.28 482.748 131.92 483.788 131.92C484.828 131.92 485.668 132.28 486.308 133C487.028 133.72 487.388 134.56 487.388 135.52V198.52ZM483.788 122.44C482.108 122.44 480.828 122.08 479.948 121.36C479.148 120.56 478.748 119.44 478.748 118V116.8C478.748 115.36 479.188 114.28 480.068 113.56C481.028 112.76 482.308 112.36 483.908 112.36C485.428 112.36 486.588 112.76 487.388 113.56C488.268 114.28 488.708 115.36 488.708 116.8V118C488.708 119.44 488.268 120.56 487.388 121.36C486.588 122.08 485.388 122.44 483.788 122.44ZM507.492 183.28C506.852 182.32 506.532 181.4 506.532 180.52C506.612 179.56 507.132 178.8 508.092 178.24C508.732 177.68 509.452 177.44 510.252 177.52C511.132 177.6 511.932 178 512.652 178.72C514.812 181.52 517.412 183.8 520.452 185.56C523.572 187.24 527.252 188.08 531.492 188.08C533.732 188.08 535.932 187.72 538.092 187C540.332 186.2 542.172 185.04 543.612 183.52C545.052 181.92 545.772 179.92 545.772 177.52C545.772 175.04 545.052 173.04 543.612 171.52C542.172 170 540.292 168.8 537.972 167.92C535.732 167.04 533.332 166.28 530.772 165.64C528.052 164.92 525.412 164.12 522.852 163.24C520.292 162.28 518.012 161.12 516.012 159.76C514.092 158.32 512.532 156.6 511.332 154.6C510.132 152.6 509.532 150.16 509.532 147.28C509.532 143.92 510.452 140.96 512.292 138.4C514.132 135.84 516.612 133.84 519.732 132.4C522.932 130.96 526.532 130.24 530.532 130.24C532.532 130.24 534.692 130.52 537.012 131.08C539.332 131.56 541.612 132.4 543.852 133.6C546.092 134.8 548.092 136.44 549.852 138.52C550.572 139.24 550.932 140.08 550.932 141.04C550.932 141.92 550.532 142.72 549.732 143.44C549.092 143.92 548.332 144.16 547.452 144.16C546.652 144.16 545.972 143.84 545.412 143.2C543.492 141.04 541.212 139.4 538.572 138.28C535.932 137.16 533.092 136.6 530.052 136.6C527.732 136.6 525.532 137 523.452 137.8C521.452 138.52 519.772 139.64 518.412 141.16C517.052 142.68 516.372 144.68 516.372 147.16C516.532 149.48 517.332 151.36 518.772 152.8C520.292 154.24 522.252 155.44 524.652 156.4C527.132 157.36 529.892 158.24 532.932 159.04C535.492 159.68 537.932 160.44 540.252 161.32C542.652 162.2 544.732 163.32 546.492 164.68C548.332 165.96 549.772 167.6 550.812 169.6C551.932 171.6 552.492 174.12 552.492 177.16C552.492 180.68 551.492 183.72 549.492 186.28C547.572 188.84 544.972 190.8 541.692 192.16C538.412 193.52 534.772 194.2 530.772 194.2C526.452 194.2 522.252 193.36 518.172 191.68C514.172 190 510.612 187.2 507.492 183.28Z" fill="white"/>
<path id="compoLight" d="M114.6 15.24C115.56 15.88 116.12 16.72 116.28 17.76C116.44 18.72 116.2 19.68 115.56 20.64C115 21.36 114.28 21.76 113.4 21.84C112.52 21.92 111.68 21.76 110.88 21.36C107.84 19.36 104.56 17.8 101.04 16.68C97.6 15.56 93.88 15 89.88 15C85 15 80.44 15.88 76.2 17.64C72.04 19.32 68.4 21.8 65.28 25.08C62.16 28.28 59.72 32.08 57.96 36.48C56.28 40.88 55.44 45.72 55.44 51C55.44 56.44 56.32 61.4 58.08 65.88C59.84 70.28 62.28 74.08 65.4 77.28C68.6 80.48 72.28 82.92 76.44 84.6C80.6 86.28 85.08 87.12 89.88 87.12C93.8 87.12 97.48 86.56 100.92 85.44C104.44 84.32 107.72 82.8 110.76 80.88C111.56 80.4 112.4 80.24 113.28 80.4C114.24 80.48 115 80.92 115.56 81.72C116.28 82.6 116.52 83.56 116.28 84.6C116.12 85.56 115.6 86.32 114.72 86.88C112.72 88.16 110.36 89.36 107.64 90.48C104.92 91.6 102.04 92.48 99 93.12C95.96 93.84 92.92 94.2 89.88 94.2C84.12 94.2 78.72 93.16 73.68 91.08C68.64 89 64.16 86.08 60.24 82.32C56.32 78.48 53.24 73.92 51 68.64C48.84 63.36 47.76 57.48 47.76 51C47.76 44.76 48.84 39.04 51 33.84C53.16 28.56 56.16 24 60 20.16C63.84 16.32 68.32 13.32 73.44 11.16C78.56 8.99999 84.04 7.91999 89.88 7.91999C94.44 7.91999 98.84 8.56 103.08 9.84C107.32 11.12 111.16 12.92 114.6 15.24ZM186.998 62.28C186.998 68.36 185.678 73.84 183.038 78.72C180.398 83.52 176.798 87.32 172.238 90.12C167.678 92.84 162.478 94.2 156.638 94.2C150.958 94.2 145.798 92.84 141.158 90.12C136.598 87.32 132.958 83.52 130.238 78.72C127.598 73.84 126.278 68.36 126.278 62.28C126.278 56.12 127.598 50.64 130.238 45.84C132.958 41.04 136.598 37.24 141.158 34.44C145.798 31.64 150.958 30.24 156.638 30.24C162.478 30.24 167.678 31.64 172.238 34.44C176.798 37.24 180.398 41.04 183.038 45.84C185.678 50.64 186.998 56.12 186.998 62.28ZM179.798 62.28C179.798 57.4 178.798 53.08 176.798 49.32C174.798 45.48 172.038 42.48 168.518 40.32C165.078 38.08 161.118 36.96 156.638 36.96C152.318 36.96 148.398 38.08 144.878 40.32C141.358 42.48 138.558 45.48 136.478 49.32C134.478 53.08 133.478 57.4 133.478 62.28C133.478 67.16 134.478 71.48 136.478 75.24C138.558 79 141.358 82 144.878 84.24C148.398 86.4 152.318 87.48 156.638 87.48C161.118 87.48 165.078 86.4 168.518 84.24C172.038 82 174.798 79 176.798 75.24C178.798 71.48 179.798 67.16 179.798 62.28ZM229.9 31.2C234.86 31.2 239.1 32.52 242.62 35.16C246.14 37.72 248.54 41.56 249.82 46.68L248.14 47.16L248.86 45C249.9 42.6 251.62 40.36 254.02 38.28C256.5 36.12 259.3 34.4 262.42 33.12C265.54 31.84 268.7 31.2 271.9 31.2C276.94 31.2 280.98 32.28 284.02 34.44C287.14 36.6 289.38 39.52 290.74 43.2C292.18 46.8 292.9 50.88 292.9 55.44V89.4C292.9 90.36 292.54 91.2 291.82 91.92C291.18 92.64 290.34 93 289.3 93C288.26 93 287.38 92.64 286.66 91.92C286.02 91.2 285.7 90.36 285.7 89.4V55.8C285.7 52.52 285.18 49.52 284.14 46.8C283.1 44.08 281.46 41.92 279.22 40.32C276.98 38.72 273.98 37.92 270.22 37.92C266.94 37.92 263.78 38.72 260.74 40.32C257.78 41.92 255.34 44.08 253.42 46.8C251.58 49.52 250.66 52.52 250.66 55.8V89.4C250.66 90.36 250.3 91.2 249.58 91.92C248.94 92.64 248.1 93 247.06 93C246.02 93 245.14 92.64 244.42 91.92C243.78 91.2 243.46 90.36 243.46 89.4V55.44C243.46 52.16 242.98 49.2 242.02 46.56C241.06 43.92 239.5 41.84 237.34 40.32C235.18 38.72 232.26 37.92 228.58 37.92C225.3 37.92 222.18 38.72 219.22 40.32C216.34 41.84 213.98 43.92 212.14 46.56C210.38 49.2 209.5 52.16 209.5 55.44V89.4C209.5 90.36 209.14 91.2 208.42 91.92C207.7 92.64 206.86 93 205.9 93C204.78 93 203.9 92.64 203.26 91.92C202.62 91.2 202.3 90.36 202.3 89.4V35.64C202.3 34.68 202.62 33.84 203.26 33.12C203.98 32.4 204.86 32.04 205.9 32.04C206.94 32.04 207.78 32.4 208.42 33.12C209.14 33.84 209.5 34.68 209.5 35.64V46.8L206.26 51.24C206.5 48.84 207.26 46.44 208.54 44.04C209.9 41.64 211.66 39.48 213.82 37.56C215.98 35.64 218.42 34.12 221.14 33C223.94 31.8 226.86 31.2 229.9 31.2ZM340.913 31.2C346.353 31.2 351.153 32.56 355.313 35.28C359.553 37.92 362.913 41.6 365.393 46.32C367.873 50.96 369.113 56.32 369.113 62.4C369.113 68.48 367.873 73.88 365.393 78.6C362.913 83.32 359.553 87.04 355.313 89.76C351.073 92.48 346.313 93.84 341.033 93.84C338.233 93.84 335.553 93.44 332.993 92.64C330.513 91.76 328.233 90.6 326.153 89.16C324.073 87.72 322.233 86.04 320.633 84.12C319.033 82.12 317.753 79.96 316.793 77.64L318.953 76.08V113.4C318.953 114.36 318.593 115.2 317.873 115.92C317.233 116.64 316.393 117 315.353 117C314.313 117 313.433 116.64 312.713 115.92C312.073 115.2 311.753 114.36 311.753 113.4V35.16C311.753 34.12 312.073 33.24 312.713 32.52C313.353 31.8 314.233 31.44 315.353 31.44C316.393 31.44 317.233 31.8 317.873 32.52C318.593 33.24 318.953 34.12 318.953 35.16V48.12L317.273 47.16C318.073 44.68 319.233 42.48 320.753 40.56C322.353 38.56 324.193 36.88 326.273 35.52C328.353 34.08 330.633 33 333.113 32.28C335.593 31.56 338.193 31.2 340.913 31.2ZM340.313 37.92C335.993 37.92 332.193 39 328.913 41.16C325.633 43.24 323.033 46.12 321.113 49.8C319.273 53.4 318.353 57.6 318.353 62.4C318.353 67.12 319.273 71.36 321.113 75.12C323.033 78.88 325.633 81.84 328.913 84C332.193 86.08 335.993 87.12 340.313 87.12C344.553 87.12 348.273 86.08 351.473 84C354.753 81.84 357.353 78.88 359.273 75.12C361.193 71.36 362.153 67.12 362.153 62.4C362.153 57.68 361.193 53.48 359.273 49.8C357.353 46.12 354.753 43.24 351.473 41.16C348.273 39 344.553 37.92 340.313 37.92ZM441.647 62.28C441.647 68.36 440.327 73.84 437.687 78.72C435.047 83.52 431.447 87.32 426.887 90.12C422.327 92.84 417.127 94.2 411.287 94.2C405.607 94.2 400.447 92.84 395.807 90.12C391.247 87.32 387.607 83.52 384.887 78.72C382.247 73.84 380.927 68.36 380.927 62.28C380.927 56.12 382.247 50.64 384.887 45.84C387.607 41.04 391.247 37.24 395.807 34.44C400.447 31.64 405.607 30.24 411.287 30.24C417.127 30.24 422.327 31.64 426.887 34.44C431.447 37.24 435.047 41.04 437.687 45.84C440.327 50.64 441.647 56.12 441.647 62.28ZM434.447 62.28C434.447 57.4 433.447 53.08 431.447 49.32C429.447 45.48 426.687 42.48 423.167 40.32C419.727 38.08 415.767 36.96 411.287 36.96C406.967 36.96 403.047 38.08 399.527 40.32C396.007 42.48 393.207 45.48 391.127 49.32C389.127 53.08 388.127 57.4 388.127 62.28C388.127 67.16 389.127 71.48 391.127 75.24C393.207 79 396.007 82 399.527 84.24C403.047 86.4 406.967 87.48 411.287 87.48C415.767 87.48 419.727 86.4 423.167 84.24C426.687 82 429.447 79 431.447 75.24C433.447 71.48 434.447 67.16 434.447 62.28ZM457.909 93C456.549 93 455.509 92.56 454.789 91.68C454.069 90.8 453.709 89.68 453.709 88.32V85.8C453.709 84.36 454.069 83.24 454.789 82.44C455.509 81.64 456.549 81.24 457.909 81.24H458.749C460.109 81.24 461.149 81.64 461.869 82.44C462.589 83.24 462.949 84.36 462.949 85.8V88.32C462.949 89.68 462.589 90.8 461.869 91.68C461.149 92.56 460.109 93 458.749 93H457.909ZM487.388 98.52C487.388 102.36 486.468 105.6 484.628 108.24C482.868 110.96 480.668 113.04 478.028 114.48C475.388 115.92 472.748 116.64 470.108 116.64C469.068 116.64 468.268 116.32 467.708 115.68C467.068 115.04 466.748 114.28 466.748 113.4V112.92C466.748 111.96 467.068 111.2 467.708 110.64C468.348 110.08 469.068 109.72 469.868 109.56C471.708 109.16 473.388 108.48 474.908 107.52C476.508 106.56 477.788 105.24 478.748 103.56C479.708 101.88 480.188 99.84 480.188 97.44V35.52C480.188 34.56 480.508 33.72 481.148 33C481.868 32.28 482.748 31.92 483.788 31.92C484.828 31.92 485.668 32.28 486.308 33C487.028 33.72 487.388 34.56 487.388 35.52V98.52ZM483.788 22.44C482.108 22.44 480.828 22.08 479.948 21.36C479.148 20.56 478.748 19.44 478.748 18V16.8C478.748 15.36 479.188 14.28 480.068 13.56C481.028 12.76 482.308 12.36 483.908 12.36C485.428 12.36 486.588 12.76 487.388 13.56C488.268 14.28 488.708 15.36 488.708 16.8V18C488.708 19.44 488.268 20.56 487.388 21.36C486.588 22.08 485.388 22.44 483.788 22.44ZM507.492 83.28C506.852 82.32 506.532 81.4 506.532 80.52C506.612 79.56 507.132 78.8 508.092 78.24C508.732 77.68 509.452 77.44 510.252 77.52C511.132 77.6 511.932 78 512.652 78.72C514.812 81.52 517.412 83.8 520.452 85.56C523.572 87.24 527.252 88.08 531.492 88.08C533.732 88.08 535.932 87.72 538.092 87C540.332 86.2 542.172 85.04 543.612 83.52C545.052 81.92 545.772 79.92 545.772 77.52C545.772 75.04 545.052 73.04 543.612 71.52C542.172 70 540.292 68.8 537.972 67.92C535.732 67.04 533.332 66.28 530.772 65.64C528.052 64.92 525.412 64.12 522.852 63.24C520.292 62.28 518.012 61.12 516.012 59.76C514.092 58.32 512.532 56.6 511.332 54.6C510.132 52.6 509.532 50.16 509.532 47.28C509.532 43.92 510.452 40.96 512.292 38.4C514.132 35.84 516.612 33.84 519.732 32.4C522.932 30.96 526.532 30.24 530.532 30.24C532.532 30.24 534.692 30.52 537.012 31.08C539.332 31.56 541.612 32.4 543.852 33.6C546.092 34.8 548.092 36.44 549.852 38.52C550.572 39.24 550.932 40.08 550.932 41.04C550.932 41.92 550.532 42.72 549.732 43.44C549.092 43.92 548.332 44.16 547.452 44.16C546.652 44.16 545.972 43.84 545.412 43.2C543.492 41.04 541.212 39.4 538.572 38.28C535.932 37.16 533.092 36.6 530.052 36.6C527.732 36.6 525.532 37 523.452 37.8C521.452 38.52 519.772 39.64 518.412 41.16C517.052 42.68 516.372 44.68 516.372 47.16C516.532 49.48 517.332 51.36 518.772 52.8C520.292 54.24 522.252 55.44 524.652 56.4C527.132 57.36 529.892 58.24 532.932 59.04C535.492 59.68 537.932 60.44 540.252 61.32C542.652 62.2 544.732 63.32 546.492 64.68C548.332 65.96 549.772 67.6 550.812 69.6C551.932 71.6 552.492 74.12 552.492 77.16C552.492 80.68 551.492 83.72 549.492 86.28C547.572 88.84 544.972 90.8 541.692 92.16C538.412 93.52 534.772 94.2 530.772 94.2C526.452 94.2 522.252 93.36 518.172 91.68C514.172 90 510.612 87.2 507.492 83.28Z" fill="#333333"/>
</g>
<defs>
<clipPath id="clip0_1_2">
<rect width="600" height="220" fill="white"/>
</clipPath>
</defs>
</svg>
