<svg width="600" height="220" viewBox="0 0 600 220" fill="none" xmlns="http://www.w3.org/2000/svg">
<g id="logo">
<g id="compoLight">
<path d="M114.6 77.24C115.56 77.88 116.12 78.72 116.28 79.76C116.44 80.72 116.2 81.68 115.56 82.64C115 83.36 114.28 83.76 113.4 83.84C112.52 83.92 111.68 83.76 110.88 83.36C107.84 81.36 104.56 79.8 101.04 78.68C97.6 77.56 93.88 77 89.88 77C85 77 80.44 77.88 76.2 79.64C72.04 81.32 68.4 83.8 65.28 87.08C62.16 90.28 59.72 94.08 57.96 98.48C56.28 102.88 55.44 107.72 55.44 113C55.44 118.44 56.32 123.4 58.08 127.88C59.84 132.28 62.28 136.08 65.4 139.28C68.6 142.48 72.28 144.92 76.44 146.6C80.6 148.28 85.08 149.12 89.88 149.12C93.8 149.12 97.48 148.56 100.92 147.44C104.44 146.32 107.72 144.8 110.76 142.88C111.56 142.4 112.4 142.24 113.28 142.4C114.24 142.48 115 142.92 115.56 143.72C116.28 144.6 116.52 145.56 116.28 146.6C116.12 147.56 115.6 148.32 114.72 148.88C112.72 150.16 110.36 151.36 107.64 152.48C104.92 153.6 102.04 154.48 99 155.12C95.96 155.84 92.92 156.2 89.88 156.2C84.12 156.2 78.72 155.16 73.68 153.08C68.64 151 64.16 148.08 60.24 144.32C56.32 140.48 53.24 135.92 51 130.64C48.84 125.36 47.76 119.48 47.76 113C47.76 106.76 48.84 101.04 51 95.84C53.16 90.56 56.16 86 60 82.16C63.84 78.32 68.32 75.32 73.44 73.16C78.56 71 84.04 69.92 89.88 69.92C94.44 69.92 98.84 70.56 103.08 71.84C107.32 73.12 111.16 74.92 114.6 77.24ZM186.998 124.28C186.998 130.36 185.678 135.84 183.038 140.72C180.398 145.52 176.798 149.32 172.238 152.12C167.678 154.84 162.478 156.2 156.638 156.2C150.958 156.2 145.798 154.84 141.158 152.12C136.598 149.32 132.958 145.52 130.238 140.72C127.598 135.84 126.278 130.36 126.278 124.28C126.278 118.12 127.598 112.64 130.238 107.84C132.958 103.04 136.598 99.24 141.158 96.44C145.798 93.64 150.958 92.24 156.638 92.24C162.478 92.24 167.678 93.64 172.238 96.44C176.798 99.24 180.398 103.04 183.038 107.84C185.678 112.64 186.998 118.12 186.998 124.28ZM179.798 124.28C179.798 119.4 178.798 115.08 176.798 111.32C174.798 107.48 172.038 104.48 168.518 102.32C165.078 100.08 161.118 98.96 156.638 98.96C152.318 98.96 148.398 100.08 144.878 102.32C141.358 104.48 138.558 107.48 136.478 111.32C134.478 115.08 133.478 119.4 133.478 124.28C133.478 129.16 134.478 133.48 136.478 137.24C138.558 141 141.358 144 144.878 146.24C148.398 148.4 152.318 149.48 156.638 149.48C161.118 149.48 165.078 148.4 168.518 146.24C172.038 144 174.798 141 176.798 137.24C178.798 133.48 179.798 129.16 179.798 124.28ZM229.9 93.2C234.86 93.2 239.1 94.52 242.62 97.16C246.14 99.72 248.54 103.56 249.82 108.68L248.14 109.16L248.86 107C249.9 104.6 251.62 102.36 254.02 100.28C256.5 98.12 259.3 96.4 262.42 95.12C265.54 93.84 268.7 93.2 271.9 93.2C276.94 93.2 280.98 94.28 284.02 96.44C287.14 98.6 289.38 101.52 290.74 105.2C292.18 108.8 292.9 112.88 292.9 117.44V151.4C292.9 152.36 292.54 153.2 291.82 153.92C291.18 154.64 290.34 155 289.3 155C288.26 155 287.38 154.64 286.66 153.92C286.02 153.2 285.7 152.36 285.7 151.4V117.8C285.7 114.52 285.18 111.52 284.14 108.8C283.1 106.08 281.46 103.92 279.22 102.32C276.98 100.72 273.98 99.92 270.22 99.92C266.94 99.92 263.78 100.72 260.74 102.32C257.78 103.92 255.34 106.08 253.42 108.8C251.58 111.52 250.66 114.52 250.66 117.8V151.4C250.66 152.36 250.3 153.2 249.58 153.92C248.94 154.64 248.1 155 247.06 155C246.02 155 245.14 154.64 244.42 153.92C243.78 153.2 243.46 152.36 243.46 151.4V117.44C243.46 114.16 242.98 111.2 242.02 108.56C241.06 105.92 239.5 103.84 237.34 102.32C235.18 100.72 232.26 99.92 228.58 99.92C225.3 99.92 222.18 100.72 219.22 102.32C216.34 103.84 213.98 105.92 212.14 108.56C210.38 111.2 209.5 114.16 209.5 117.44V151.4C209.5 152.36 209.14 153.2 208.42 153.92C207.7 154.64 206.86 155 205.9 155C204.78 155 203.9 154.64 203.26 153.92C202.62 153.2 202.3 152.36 202.3 151.4V97.64C202.3 96.68 202.62 95.84 203.26 95.12C203.98 94.4 204.86 94.04 205.9 94.04C206.94 94.04 207.78 94.4 208.42 95.12C209.14 95.84 209.5 96.68 209.5 97.64V108.8L206.26 113.24C206.5 110.84 207.26 108.44 208.54 106.04C209.9 103.64 211.66 101.48 213.82 99.56C215.98 97.64 218.42 96.12 221.14 95C223.94 93.8 226.86 93.2 229.9 93.2ZM340.913 93.2C346.353 93.2 351.153 94.56 355.313 97.28C359.553 99.92 362.913 103.6 365.393 108.32C367.873 112.96 369.113 118.32 369.113 124.4C369.113 130.48 367.873 135.88 365.393 140.6C362.913 145.32 359.553 149.04 355.313 151.76C351.073 154.48 346.313 155.84 341.033 155.84C338.233 155.84 335.553 155.44 332.993 154.64C330.513 153.76 328.233 152.6 326.153 151.16C324.073 149.72 322.233 148.04 320.633 146.12C319.033 144.12 317.753 141.96 316.793 139.64L318.953 138.08V175.4C318.953 176.36 318.593 177.2 317.873 177.92C317.233 178.64 316.393 179 315.353 179C314.313 179 313.433 178.64 312.713 177.92C312.073 177.2 311.753 176.36 311.753 175.4V97.16C311.753 96.12 312.073 95.24 312.713 94.52C313.353 93.8 314.233 93.44 315.353 93.44C316.393 93.44 317.233 93.8 317.873 94.52C318.593 95.24 318.953 96.12 318.953 97.16V110.12L317.273 109.16C318.073 106.68 319.233 104.48 320.753 102.56C322.353 100.56 324.193 98.88 326.273 97.52C328.353 96.08 330.633 95 333.113 94.28C335.593 93.56 338.193 93.2 340.913 93.2ZM340.313 99.92C335.993 99.92 332.193 101 328.913 103.16C325.633 105.24 323.033 108.12 321.113 111.8C319.273 115.4 318.353 119.6 318.353 124.4C318.353 129.12 319.273 133.36 321.113 137.12C323.033 140.88 325.633 143.84 328.913 146C332.193 148.08 335.993 149.12 340.313 149.12C344.553 149.12 348.273 148.08 351.473 146C354.753 143.84 357.353 140.88 359.273 137.12C361.193 133.36 362.153 129.12 362.153 124.4C362.153 119.68 361.193 115.48 359.273 111.8C357.353 108.12 354.753 105.24 351.473 103.16C348.273 101 344.553 99.92 340.313 99.92ZM441.647 124.28C441.647 130.36 440.327 135.84 437.687 140.72C435.047 145.52 431.447 149.32 426.887 152.12C422.327 154.84 417.127 156.2 411.287 156.2C405.607 156.2 400.447 154.84 395.807 152.12C391.247 149.32 387.607 145.52 384.887 140.72C382.247 135.84 380.927 130.36 380.927 124.28C380.927 118.12 382.247 112.64 384.887 107.84C387.607 103.04 391.247 99.24 395.807 96.44C400.447 93.64 405.607 92.24 411.287 92.24C417.127 92.24 422.327 93.64 426.887 96.44C431.447 99.24 435.047 103.04 437.687 107.84C440.327 112.64 441.647 118.12 441.647 124.28ZM434.447 124.28C434.447 119.4 433.447 115.08 431.447 111.32C429.447 107.48 426.687 104.48 423.167 102.32C419.727 100.08 415.767 98.96 411.287 98.96C406.967 98.96 403.047 100.08 399.527 102.32C396.007 104.48 393.207 107.48 391.127 111.32C389.127 115.08 388.127 119.4 388.127 124.28C388.127 129.16 389.127 133.48 391.127 137.24C393.207 141 396.007 144 399.527 146.24C403.047 148.4 406.967 149.48 411.287 149.48C415.767 149.48 419.727 148.4 423.167 146.24C426.687 144 429.447 141 431.447 137.24C433.447 133.48 434.447 129.16 434.447 124.28ZM457.909 155C456.549 155 455.509 154.56 454.789 153.68C454.069 152.8 453.709 151.68 453.709 150.32V147.8C453.709 146.36 454.069 145.24 454.789 144.44C455.509 143.64 456.549 143.24 457.909 143.24H458.749C460.109 143.24 461.149 143.64 461.869 144.44C462.589 145.24 462.949 146.36 462.949 147.8V150.32C462.949 151.68 462.589 152.8 461.869 153.68C461.149 154.56 460.109 155 458.749 155H457.909ZM487.388 160.52C487.388 164.36 486.468 167.6 484.628 170.24C482.868 172.96 480.668 175.04 478.028 176.48C475.388 177.92 472.748 178.64 470.108 178.64C469.068 178.64 468.268 178.32 467.708 177.68C467.068 177.04 466.748 176.28 466.748 175.4V174.92C466.748 173.96 467.068 173.2 467.708 172.64C468.348 172.08 469.068 171.72 469.868 171.56C471.708 171.16 473.388 170.48 474.908 169.52C476.508 168.56 477.788 167.24 478.748 165.56C479.708 163.88 480.188 161.84 480.188 159.44V97.52C480.188 96.56 480.508 95.72 481.148 95C481.868 94.28 482.748 93.92 483.788 93.92C484.828 93.92 485.668 94.28 486.308 95C487.028 95.72 487.388 96.56 487.388 97.52V160.52ZM483.788 84.44C482.108 84.44 480.828 84.08 479.948 83.36C479.148 82.56 478.748 81.44 478.748 80V78.8C478.748 77.36 479.188 76.28 480.068 75.56C481.028 74.76 482.308 74.36 483.908 74.36C485.428 74.36 486.588 74.76 487.388 75.56C488.268 76.28 488.708 77.36 488.708 78.8V80C488.708 81.44 488.268 82.56 487.388 83.36C486.588 84.08 485.388 84.44 483.788 84.44ZM507.492 145.28C506.852 144.32 506.532 143.4 506.532 142.52C506.612 141.56 507.132 140.8 508.092 140.24C508.732 139.68 509.452 139.44 510.252 139.52C511.132 139.6 511.932 140 512.652 140.72C514.812 143.52 517.412 145.8 520.452 147.56C523.572 149.24 527.252 150.08 531.492 150.08C533.732 150.08 535.932 149.72 538.092 149C540.332 148.2 542.172 147.04 543.612 145.52C545.052 143.92 545.772 141.92 545.772 139.52C545.772 137.04 545.052 135.04 543.612 133.52C542.172 132 540.292 130.8 537.972 129.92C535.732 129.04 533.332 128.28 530.772 127.64C528.052 126.92 525.412 126.12 522.852 125.24C520.292 124.28 518.012 123.12 516.012 121.76C514.092 120.32 512.532 118.6 511.332 116.6C510.132 114.6 509.532 112.16 509.532 109.28C509.532 105.92 510.452 102.96 512.292 100.4C514.132 97.84 516.612 95.84 519.732 94.4C522.932 92.96 526.532 92.24 530.532 92.24C532.532 92.24 534.692 92.52 537.012 93.08C539.332 93.56 541.612 94.4 543.852 95.6C546.092 96.8 548.092 98.44 549.852 100.52C550.572 101.24 550.932 102.08 550.932 103.04C550.932 103.92 550.532 104.72 549.732 105.44C549.092 105.92 548.332 106.16 547.452 106.16C546.652 106.16 545.972 105.84 545.412 105.2C543.492 103.04 541.212 101.4 538.572 100.28C535.932 99.16 533.092 98.6 530.052 98.6C527.732 98.6 525.532 99 523.452 99.8C521.452 100.52 519.772 101.64 518.412 103.16C517.052 104.68 516.372 106.68 516.372 109.16C516.532 111.48 517.332 113.36 518.772 114.8C520.292 116.24 522.252 117.44 524.652 118.4C527.132 119.36 529.892 120.24 532.932 121.04C535.492 121.68 537.932 122.44 540.252 123.32C542.652 124.2 544.732 125.32 546.492 126.68C548.332 127.96 549.772 129.6 550.812 131.6C551.932 133.6 552.492 136.12 552.492 139.16C552.492 142.68 551.492 145.72 549.492 148.28C547.572 150.84 544.972 152.8 541.692 154.16C538.412 155.52 534.772 156.2 530.772 156.2C526.452 156.2 522.252 155.36 518.172 153.68C514.172 152 510.612 149.2 507.492 145.28Z" fill="#0D1116"/>
<path d="M114.6 77.24L113.482 78.8982L113.491 78.9041L114.6 77.24ZM116.28 79.76L114.303 80.0641L114.305 80.0765L114.307 80.0888L116.28 79.76ZM115.56 82.64L117.139 83.8679L117.184 83.8102L117.224 83.7494L115.56 82.64ZM113.4 83.84L113.219 81.8482L113.219 81.8482L113.4 83.84ZM110.88 83.36L109.781 85.0308L109.88 85.0959L109.986 85.1489L110.88 83.36ZM101.04 78.68L100.421 80.5818L100.434 80.5858L101.04 78.68ZM76.2 79.64L76.9489 81.4945L76.9579 81.4909L76.9668 81.4872L76.2 79.64ZM65.28 87.08L66.712 88.4762L66.7206 88.4674L66.7291 88.4584L65.28 87.08ZM57.96 98.48L56.103 97.7372L56.0972 97.7519L56.0916 97.7666L57.96 98.48ZM58.08 127.88L56.2185 128.611L56.223 128.623L58.08 127.88ZM65.4 139.28L63.968 140.676L63.9768 140.685L63.9858 140.694L65.4 139.28ZM76.44 146.6L75.6911 148.454L75.6911 148.454L76.44 146.6ZM100.92 147.44L100.314 145.534L100.301 145.538L100.92 147.44ZM110.76 142.88L109.731 141.165L109.711 141.177L109.692 141.189L110.76 142.88ZM113.28 142.4L112.922 144.368L113.017 144.385L113.114 144.393L113.28 142.4ZM115.56 143.72L113.922 144.867L113.965 144.928L114.012 144.986L115.56 143.72ZM116.28 146.6L114.331 146.15L114.317 146.21L114.307 146.271L116.28 146.6ZM114.72 148.88L113.646 147.193L113.642 147.195L114.72 148.88ZM107.64 152.48L108.402 154.329L108.402 154.329L107.64 152.48ZM99 155.12L98.588 153.163L98.5635 153.168L98.5391 153.174L99 155.12ZM73.68 153.08L72.917 154.929L72.917 154.929L73.68 153.08ZM60.24 144.32L58.8404 145.749L58.848 145.756L58.8556 145.763L60.24 144.32ZM51 130.64L49.1489 131.397L49.1538 131.409L49.1588 131.421L51 130.64ZM51 95.84L52.847 96.6072L52.8511 96.5973L51 95.84ZM60 82.16L58.5858 80.7458L58.5858 80.7458L60 82.16ZM73.44 73.16L74.2174 75.0027L74.2174 75.0027L73.44 73.16ZM103.08 71.84L102.502 73.7547L102.502 73.7547L103.08 71.84ZM113.491 78.9041C114.034 79.2662 114.237 79.6362 114.303 80.0641L118.257 79.4559C118.003 77.8038 117.086 76.4938 115.709 75.5759L113.491 78.9041ZM114.307 80.0888C114.369 80.4567 114.31 80.9099 113.896 81.5306L117.224 83.7494C118.09 82.4501 118.511 80.9833 118.253 79.4312L114.307 80.0888ZM113.981 81.4121C113.749 81.7109 113.528 81.8201 113.219 81.8482L113.581 85.8318C115.032 85.6998 116.251 85.0091 117.139 83.8679L113.981 81.4121ZM113.219 81.8482C112.714 81.8941 112.246 81.807 111.774 81.5711L109.986 85.1489C111.114 85.713 112.326 85.9459 113.581 85.8318L113.219 81.8482ZM111.979 81.6892C108.784 79.5871 105.338 77.9487 101.646 76.7741L100.434 80.5858C103.782 81.6513 106.896 83.1329 109.781 85.0308L111.979 81.6892ZM101.659 76.7783C97.9993 75.5867 94.0682 75 89.88 75V79C93.6918 79 97.2007 79.5333 100.421 80.5817L101.659 76.7783ZM89.88 75C84.7537 75 79.9313 75.9257 75.4332 77.7928L76.9668 81.4872C80.9487 79.8343 85.2464 79 89.88 79V75ZM75.4511 77.7855C71.0239 79.5734 67.1458 82.2167 63.8309 85.7016L66.7291 88.4584C69.6542 85.3833 73.0561 83.0666 76.9489 81.4945L75.4511 77.7855ZM63.848 85.6838C60.534 89.0828 57.9545 93.1086 56.103 97.7372L59.817 99.2228C61.4855 95.0514 63.786 91.4772 66.712 88.4762L63.848 85.6838ZM56.0916 97.7666C54.3147 102.42 53.44 107.506 53.44 113H57.44C57.44 107.934 58.2453 103.34 59.8284 99.1934L56.0916 97.7666ZM53.44 113C53.44 118.658 54.3558 123.87 56.2185 128.611L59.9415 127.149C58.2842 122.93 57.44 118.222 57.44 113H53.44ZM56.223 128.623C58.0745 133.251 60.654 137.277 63.968 140.676L66.832 137.884C63.906 134.883 61.6055 131.309 59.937 127.137L56.223 128.623ZM63.9858 140.694C67.374 144.082 71.2798 146.673 75.6911 148.454L77.1889 144.746C73.2802 143.167 69.826 140.878 66.8142 137.866L63.9858 140.694ZM75.6911 148.454C80.1053 150.237 84.8415 151.12 89.88 151.12V147.12C85.3185 147.12 81.0947 146.323 77.1889 144.746L75.6911 148.454ZM89.88 151.12C93.9927 151.12 97.8832 150.532 101.539 149.342L100.301 145.538C97.0768 146.588 93.6073 147.12 89.88 147.12V151.12ZM101.526 149.346C105.204 148.176 108.64 146.584 111.828 144.571L109.692 141.189C106.8 143.016 103.676 144.464 100.314 145.534L101.526 149.346ZM111.789 144.595C112.192 144.353 112.542 144.299 112.922 144.368L113.638 140.432C112.258 140.181 110.928 140.447 109.731 141.165L111.789 144.595ZM113.114 144.393C113.472 144.423 113.697 144.546 113.922 144.867L117.198 142.573C116.303 141.294 115.008 140.537 113.446 140.407L113.114 144.393ZM114.012 144.986C114.37 145.424 114.422 145.758 114.331 146.15L118.229 147.05C118.618 145.362 118.19 143.776 117.108 142.454L114.012 144.986ZM114.307 146.271C114.248 146.628 114.086 146.913 113.646 147.193L115.794 150.567C117.114 149.727 117.992 148.492 118.253 146.929L114.307 146.271ZM113.642 147.195C111.763 148.398 109.513 149.546 106.879 150.631L108.402 154.329C111.207 153.174 113.677 151.922 115.798 150.565L113.642 147.195ZM106.879 150.631C104.278 151.702 101.515 152.547 98.588 153.163L99.412 157.077C102.565 156.413 105.562 155.498 108.402 154.329L106.879 150.631ZM98.5391 153.174C95.6459 153.859 92.7605 154.2 89.88 154.2V158.2C93.0795 158.2 96.2741 157.821 99.4609 157.066L98.5391 153.174ZM89.88 154.2C84.3668 154.2 79.2275 153.206 74.443 151.231L72.917 154.929C78.2125 157.114 83.8732 158.2 89.88 158.2V154.2ZM74.443 151.231C69.6327 149.246 65.3637 146.463 61.6245 142.877L58.8556 145.763C62.9563 149.697 67.6473 152.754 72.917 154.929L74.443 151.231ZM61.6396 142.891C57.9165 139.244 54.9829 134.907 52.8412 129.859L49.1588 131.421C51.4971 136.933 54.7235 141.716 58.8404 145.749L61.6396 142.891ZM52.8511 129.883C50.8019 124.874 49.76 119.255 49.76 113H45.76C45.76 119.705 46.8781 125.846 49.1489 131.397L52.8511 129.883ZM49.76 113C49.76 106.995 50.7984 101.539 52.847 96.6072L49.153 95.0728C46.8816 100.541 45.76 106.525 45.76 113H49.76ZM52.8511 96.5973C54.9157 91.5505 57.7714 87.217 61.4142 83.5742L58.5858 80.7458C54.5486 84.783 51.4043 89.5695 49.1489 95.0827L52.8511 96.5973ZM61.4142 83.5742C65.0673 79.9211 69.3297 77.0647 74.2174 75.0027L72.6626 71.3173C67.3103 73.5753 62.6127 76.7189 58.5858 80.7458L61.4142 83.5742ZM74.2174 75.0027C79.0789 72.9518 84.2932 71.92 89.88 71.92V67.92C83.7868 67.92 78.0411 69.0482 72.6626 71.3173L74.2174 75.0027ZM89.88 71.92C94.25 71.92 98.455 72.5329 102.502 73.7547L103.658 69.9253C99.225 68.5871 94.63 67.92 89.88 67.92V71.92ZM102.502 73.7547C106.563 74.9806 110.219 76.6976 113.482 78.8981L115.718 75.5819C112.101 73.1424 108.077 71.2594 103.658 69.9253L102.502 73.7547ZM183.038 140.72L184.791 141.684L184.798 141.672L183.038 140.72ZM172.238 152.12L173.263 153.838L173.274 153.831L173.285 153.824L172.238 152.12ZM141.158 152.12L140.112 153.824L140.129 153.835L140.147 153.845L141.158 152.12ZM130.238 140.72L128.479 141.672L128.489 141.689L128.498 141.706L130.238 140.72ZM130.238 107.84L128.498 106.854L128.492 106.865L128.486 106.876L130.238 107.84ZM141.158 96.44L140.125 94.7276L140.118 94.7316L140.112 94.7357L141.158 96.44ZM172.238 96.44L173.285 94.7357L173.285 94.7357L172.238 96.44ZM183.038 107.84L181.286 108.804L183.038 107.84ZM176.798 111.32L175.025 112.244L175.029 112.252L175.033 112.259L176.798 111.32ZM168.518 102.32L167.427 103.996L167.45 104.011L167.472 104.025L168.518 102.32ZM144.878 102.32L145.924 104.025L145.938 104.016L145.952 104.007L144.878 102.32ZM136.478 111.32L134.72 110.367L134.716 110.374L134.713 110.381L136.478 111.32ZM136.478 137.24L134.713 138.179L134.72 138.194L134.728 138.208L136.478 137.24ZM144.878 146.24L143.805 147.927L143.818 147.936L143.832 147.945L144.878 146.24ZM168.518 146.24L169.582 147.934L169.592 147.927L168.518 146.24ZM176.798 137.24L178.564 138.179L178.564 138.179L176.798 137.24ZM184.998 124.28C184.998 130.06 183.746 135.208 181.279 139.768L184.798 141.672C187.61 136.472 188.998 130.66 188.998 124.28H184.998ZM181.286 139.756C178.809 144.26 175.449 147.802 171.192 150.416L173.285 153.824C178.148 150.838 181.988 146.78 184.791 141.684L181.286 139.756ZM171.214 150.402C166.994 152.919 162.155 154.2 156.638 154.2V158.2C162.802 158.2 168.363 156.761 173.263 153.838L171.214 150.402ZM156.638 154.2C151.293 154.2 146.486 152.925 142.17 150.395L140.147 153.845C145.111 156.755 150.624 158.2 156.638 158.2V154.2ZM142.205 150.416C137.942 147.798 134.537 144.249 131.978 139.734L128.498 141.706C131.38 146.791 135.255 150.842 140.112 153.824L142.205 150.416ZM131.998 139.768C129.53 135.208 128.278 130.06 128.278 124.28H124.278C124.278 130.66 125.666 136.472 128.479 141.672L131.998 139.768ZM128.278 124.28C128.278 118.414 129.533 113.273 131.991 108.804L128.486 106.876C125.664 112.007 124.278 117.826 124.278 124.28H128.278ZM131.978 108.826C134.537 104.311 137.942 100.762 142.205 98.1443L140.112 94.7357C135.255 97.7182 131.38 101.769 128.498 106.854L131.978 108.826ZM142.192 98.1524C146.505 95.5498 151.304 94.24 156.638 94.24V90.24C150.613 90.24 145.092 91.7302 140.125 94.7276L142.192 98.1524ZM156.638 94.24C162.144 94.24 166.975 95.5552 171.192 98.1443L173.285 94.7357C168.382 91.7248 162.813 90.24 156.638 90.24V94.24ZM171.192 98.1443C175.449 100.758 178.809 104.3 181.286 108.804L184.791 106.876C181.988 101.78 178.148 97.7216 173.285 94.7357L171.192 98.1443ZM181.286 108.804C183.744 113.273 184.998 118.414 184.998 124.28H188.998C188.998 117.826 187.613 112.007 184.791 106.876L181.286 108.804ZM181.798 124.28C181.798 119.121 180.739 114.47 178.564 110.381L175.033 112.259C176.858 115.69 177.798 119.679 177.798 124.28H181.798ZM178.572 110.396C176.413 106.251 173.409 102.974 169.564 100.615L167.472 104.025C170.668 105.986 173.184 108.709 175.025 112.244L178.572 110.396ZM169.61 100.644C165.816 98.1733 161.469 96.96 156.638 96.96V100.96C160.768 100.96 164.341 101.987 167.427 103.996L169.61 100.644ZM156.638 96.96C151.952 96.96 147.657 98.181 143.805 100.633L145.952 104.007C149.14 101.979 152.685 100.96 156.638 100.96V96.96ZM143.832 100.615C139.996 102.97 136.957 106.237 134.72 110.367L138.237 112.273C140.16 108.723 142.721 105.99 145.924 104.025L143.832 100.615ZM134.713 110.381C132.538 114.47 131.478 119.121 131.478 124.28H135.478C135.478 119.679 136.419 115.69 138.244 112.259L134.713 110.381ZM131.478 124.28C131.478 129.439 132.538 134.09 134.713 138.179L138.244 136.301C136.419 132.87 135.478 128.881 135.478 124.28H131.478ZM134.728 138.208C136.965 142.252 139.994 145.502 143.805 147.927L145.952 144.553C142.723 142.498 140.152 139.748 138.229 136.272L134.728 138.208ZM143.832 147.945C147.682 150.307 151.967 151.48 156.638 151.48V147.48C152.67 147.48 149.115 146.493 145.924 144.535L143.832 147.945ZM156.638 151.48C161.455 151.48 165.791 150.314 169.582 147.934L167.455 144.546C164.366 146.486 160.782 147.48 156.638 147.48V151.48ZM169.592 147.927C173.41 145.498 176.406 142.238 178.564 138.179L175.033 136.301C173.191 139.762 170.667 142.502 167.445 144.553L169.592 147.927ZM178.564 138.179C180.739 134.09 181.798 129.439 181.798 124.28H177.798C177.798 128.881 176.858 132.87 175.033 136.301L178.564 138.179ZM242.62 97.16L241.42 98.76L241.432 98.7688L241.444 98.7775L242.62 97.16ZM249.82 108.68L250.37 110.603L252.23 110.072L251.761 108.195L249.82 108.68ZM248.14 109.16L246.243 108.528L245.044 112.125L248.69 111.083L248.14 109.16ZM248.86 107L247.025 106.205L246.991 106.285L246.963 106.368L248.86 107ZM254.02 100.28L255.33 101.791L255.334 101.788L254.02 100.28ZM262.42 95.12L263.179 96.9703L263.179 96.9703L262.42 95.12ZM284.02 96.44L282.862 98.0704L282.872 98.0774L282.882 98.0844L284.02 96.44ZM290.74 105.2L288.864 105.893L288.874 105.918L288.883 105.943L290.74 105.2ZM291.82 153.92L290.406 152.506L290.365 152.547L290.326 152.591L291.82 153.92ZM286.66 153.92L285.166 155.249L285.205 155.293L285.246 155.334L286.66 153.92ZM279.22 102.32L278.058 103.947L278.058 103.947L279.22 102.32ZM260.74 102.32L259.809 100.55L259.799 100.555L259.789 100.561L260.74 102.32ZM253.42 108.8L251.786 107.647L251.775 107.663L251.764 107.679L253.42 108.8ZM249.58 153.92L248.166 152.506L248.125 152.547L248.085 152.591L249.58 153.92ZM244.42 153.92L242.925 155.249L242.965 155.293L243.006 155.334L244.42 153.92ZM242.02 108.56L243.9 107.877L243.9 107.877L242.02 108.56ZM237.34 102.32L236.15 103.927L236.169 103.942L236.189 103.956L237.34 102.32ZM219.22 102.32L220.154 104.089L220.163 104.084L220.171 104.079L219.22 102.32ZM212.14 108.56L210.5 107.416L210.488 107.433L210.476 107.451L212.14 108.56ZM203.26 95.12L201.846 93.7058L201.805 93.7473L201.765 93.7913L203.26 95.12ZM208.42 95.12L206.925 96.4487L206.965 96.4927L207.006 96.5342L208.42 95.12ZM209.5 108.8L211.116 109.979L211.5 109.452V108.8H209.5ZM206.26 113.24L204.27 113.041L203.538 120.363L207.876 114.419L206.26 113.24ZM208.54 106.04L206.8 105.054L206.788 105.076L206.776 105.099L208.54 106.04ZM213.82 99.56L215.149 101.055L215.149 101.055L213.82 99.56ZM221.14 95L221.902 96.8494L221.915 96.8439L221.928 96.8383L221.14 95ZM229.9 95.2C234.485 95.2 238.29 96.4123 241.42 98.76L243.82 95.56C239.911 92.6277 235.235 91.2 229.9 91.2V95.2ZM241.444 98.7775C244.508 101.006 246.689 104.4 247.88 109.165L251.761 108.195C250.392 102.72 247.773 98.4341 243.797 95.5425L241.444 98.7775ZM249.271 106.757L247.591 107.237L248.69 111.083L250.37 110.603L249.271 106.757ZM250.038 109.792L250.758 107.632L246.963 106.368L246.243 108.528L250.038 109.792ZM250.695 107.795C251.593 105.723 253.109 103.716 255.33 101.791L252.71 98.7686C250.132 101.004 248.207 103.477 247.025 106.205L250.695 107.795ZM255.334 101.788C257.645 99.7754 260.256 98.1695 263.179 96.9703L261.661 93.2697C258.344 94.6305 255.356 96.4646 252.707 98.7718L255.334 101.788ZM263.179 96.9703C266.072 95.7838 268.975 95.2 271.9 95.2V91.2C268.426 91.2 265.009 91.8962 261.661 93.2697L263.179 96.9703ZM271.9 95.2C276.668 95.2 280.261 96.2223 282.862 98.0704L285.179 94.8096C281.7 92.3377 277.212 91.2 271.9 91.2V95.2ZM282.882 98.0844C285.652 100.002 287.642 102.585 288.864 105.893L292.616 104.507C291.119 100.455 288.628 97.1977 285.159 94.7956L282.882 98.0844ZM288.883 105.943C290.214 109.269 290.9 113.09 290.9 117.44H294.9C294.9 112.67 294.147 108.331 292.597 104.457L288.883 105.943ZM290.9 117.44V151.4H294.9V117.44H290.9ZM290.9 151.4C290.9 151.795 290.776 152.136 290.406 152.506L293.235 155.334C294.304 154.264 294.9 152.925 294.9 151.4H290.9ZM290.326 152.591C290.098 152.847 289.82 153 289.3 153V157C290.86 157 292.263 156.433 293.315 155.249L290.326 152.591ZM289.3 153C288.778 153 288.411 152.842 288.075 152.506L285.246 155.334C286.35 156.438 287.743 157 289.3 157V153ZM288.155 152.591C287.839 152.236 287.7 151.868 287.7 151.4H283.7C283.7 152.852 284.201 154.164 285.166 155.249L288.155 152.591ZM287.7 151.4V117.8H283.7V151.4H287.7ZM287.7 117.8C287.7 114.306 287.146 111.061 286.008 108.086L282.272 109.514C283.215 111.979 283.7 114.734 283.7 117.8H287.7ZM286.008 108.086C284.837 105.021 282.962 102.535 280.383 100.693L278.058 103.947C279.959 105.305 281.364 107.139 282.272 109.514L286.008 108.086ZM280.383 100.693C277.7 98.7759 274.248 97.92 270.22 97.92V101.92C273.713 101.92 276.261 102.664 278.058 103.947L280.383 100.693ZM270.22 97.92C266.6 97.92 263.122 98.8064 259.809 100.55L261.672 104.09C264.439 102.634 267.28 101.92 270.22 101.92V97.92ZM259.789 100.561C256.561 102.306 253.886 104.672 251.786 107.647L255.054 109.953C256.794 107.488 259 105.534 261.691 104.079L259.789 100.561ZM251.764 107.679C249.7 110.73 248.66 114.12 248.66 117.8H252.66C252.66 114.92 253.46 112.31 255.077 109.921L251.764 107.679ZM248.66 117.8V151.4H252.66V117.8H248.66ZM248.66 151.4C248.66 151.795 248.536 152.136 248.166 152.506L250.995 155.334C252.064 154.264 252.66 152.925 252.66 151.4H248.66ZM248.085 152.591C247.858 152.847 247.58 153 247.06 153V157C248.62 157 250.023 156.433 251.075 155.249L248.085 152.591ZM247.06 153C246.538 153 246.171 152.842 245.835 152.506L243.006 155.334C244.11 156.438 245.503 157 247.06 157V153ZM245.915 152.591C245.599 152.236 245.46 151.868 245.46 151.4H241.46C241.46 152.852 241.961 154.164 242.925 155.249L245.915 152.591ZM245.46 151.4V117.44H241.46V151.4H245.46ZM245.46 117.44C245.46 113.965 244.952 110.769 243.9 107.877L240.141 109.243C241.009 111.631 241.46 114.355 241.46 117.44H245.46ZM243.9 107.877C242.81 104.878 241.008 102.455 238.491 100.684L236.189 103.956C237.993 105.225 239.311 106.962 240.141 109.243L243.9 107.877ZM238.531 100.713C235.919 98.7786 232.534 97.92 228.58 97.92V101.92C231.987 101.92 234.441 102.661 236.15 103.927L238.531 100.713ZM228.58 97.92C224.959 97.92 221.514 98.8069 218.269 100.561L220.171 104.079C222.847 102.633 225.641 101.92 228.58 101.92V97.92ZM218.287 100.551C215.128 102.218 212.524 104.511 210.5 107.416L213.781 109.704C215.436 107.329 217.553 105.462 220.154 104.089L218.287 100.551ZM210.476 107.451C208.489 110.431 207.5 113.779 207.5 117.44H211.5C211.5 114.541 212.271 111.969 213.804 109.669L210.476 107.451ZM207.5 117.44V151.4H211.5V117.44H207.5ZM207.5 151.4C207.5 151.795 207.376 152.136 207.006 152.506L209.835 155.334C210.904 154.264 211.5 152.925 211.5 151.4H207.5ZM207.006 152.506C206.636 152.876 206.295 153 205.9 153V157C207.425 157 208.765 156.404 209.835 155.334L207.006 152.506ZM205.9 153C205.249 153 204.953 152.813 204.755 152.591L201.765 155.249C202.848 156.467 204.311 157 205.9 157V153ZM204.755 152.591C204.439 152.236 204.3 151.868 204.3 151.4H200.3C200.3 152.852 200.801 154.164 201.765 155.249L204.755 152.591ZM204.3 151.4V97.64H200.3V151.4H204.3ZM204.3 97.64C204.3 97.1717 204.439 96.804 204.755 96.4487L201.765 93.7913C200.801 94.876 200.3 96.1883 200.3 97.64H204.3ZM204.675 96.5342C205.011 96.1982 205.378 96.04 205.9 96.04V92.04C204.343 92.04 202.95 92.6018 201.846 93.7058L204.675 96.5342ZM205.9 96.04C206.42 96.04 206.698 96.1925 206.925 96.4487L209.915 93.7913C208.863 92.6075 207.46 92.04 205.9 92.04V96.04ZM207.006 96.5342C207.376 96.9044 207.5 97.2451 207.5 97.64H211.5C211.5 96.1149 210.904 94.7756 209.835 93.7058L207.006 96.5342ZM207.5 97.64V108.8H211.5V97.64H207.5ZM207.885 107.621L204.645 112.061L207.876 114.419L211.116 109.979L207.885 107.621ZM208.25 113.439C208.461 111.33 209.132 109.18 210.305 106.981L206.776 105.099C205.388 107.7 204.539 110.35 204.27 113.041L208.25 113.439ZM210.28 107.026C211.527 104.826 213.145 102.836 215.149 101.055L212.492 98.0652C210.175 100.124 208.274 102.454 206.8 105.054L210.28 107.026ZM215.149 101.055C217.138 99.2867 219.386 97.8854 221.902 96.8494L220.379 93.1506C217.455 94.3546 214.822 95.9933 212.492 98.0652L215.149 101.055ZM221.928 96.8383C224.48 95.7448 227.132 95.2 229.9 95.2V91.2C226.589 91.2 223.401 91.8552 220.352 93.1617L221.928 96.8383ZM355.313 97.28L354.219 98.9539L354.238 98.9661L354.256 98.9778L355.313 97.28ZM365.393 108.32L363.623 109.25L363.626 109.257L363.63 109.263L365.393 108.32ZM365.393 140.6L363.623 139.67L363.623 139.67L365.393 140.6ZM355.313 151.76L356.393 153.443L356.393 153.443L355.313 151.76ZM332.993 154.64L332.325 156.525L332.361 156.538L332.397 156.549L332.993 154.64ZM326.153 151.16L327.292 149.516L327.292 149.516L326.153 151.16ZM320.633 146.12L319.072 147.369L319.084 147.385L319.097 147.4L320.633 146.12ZM316.793 139.64L315.622 138.019L314.341 138.944L314.945 140.405L316.793 139.64ZM318.953 138.08H320.953V134.168L317.782 136.459L318.953 138.08ZM317.873 177.92L316.459 176.506L316.418 176.547L316.379 176.591L317.873 177.92ZM312.713 177.92L311.219 179.249L311.258 179.293L311.299 179.334L312.713 177.92ZM312.713 94.52L314.208 95.8487L314.208 95.8487L312.713 94.52ZM317.873 94.52L316.379 95.8487L316.418 95.8927L316.459 95.9342L317.873 94.52ZM318.953 110.12L317.961 111.856L320.953 113.566V110.12H318.953ZM317.273 109.16L315.37 108.546L314.872 110.091L316.281 110.896L317.273 109.16ZM320.753 102.56L319.192 101.311L319.185 101.319L320.753 102.56ZM326.273 97.52L327.368 99.1939L327.39 99.1794L327.412 99.1644L326.273 97.52ZM333.113 94.28L332.556 92.3593L332.556 92.3593L333.113 94.28ZM328.913 103.16L329.985 104.849L329.999 104.84L330.013 104.83L328.913 103.16ZM321.113 111.8L319.34 110.875L319.336 110.882L319.333 110.89L321.113 111.8ZM321.113 137.12L319.317 137.999L319.324 138.014L319.332 138.03L321.113 137.12ZM328.913 146L327.813 147.67L327.828 147.68L327.842 147.689L328.913 146ZM351.473 146L352.563 147.677L352.573 147.67L351.473 146ZM359.273 137.12L361.055 138.03L361.055 138.03L359.273 137.12ZM351.473 103.16L350.354 104.818L350.378 104.834L350.402 104.849L351.473 103.16ZM340.913 95.2C346.003 95.2 350.415 96.4667 354.219 98.9539L356.408 95.6061C351.892 92.6533 346.704 91.2 340.913 91.2V95.2ZM354.256 98.9778C358.174 101.417 361.297 104.823 363.623 109.25L367.164 107.39C364.53 102.377 360.933 98.4228 356.371 95.5822L354.256 98.9778ZM363.63 109.263C365.932 113.57 367.113 118.597 367.113 124.4H371.113C371.113 118.043 369.815 112.35 367.157 107.377L363.63 109.263ZM367.113 124.4C367.113 130.202 365.932 135.275 363.623 139.67L367.164 141.53C369.815 136.485 371.113 130.758 371.113 124.4H367.113ZM363.623 139.67C361.294 144.102 358.165 147.555 354.234 150.077L356.393 153.443C360.942 150.525 364.533 146.538 367.164 141.53L363.623 139.67ZM354.234 150.077C350.332 152.58 345.95 153.84 341.033 153.84V157.84C346.677 157.84 351.815 156.38 356.393 153.443L354.234 150.077ZM341.033 153.84C338.427 153.84 335.949 153.468 333.59 152.731L332.397 156.549C335.158 157.412 338.04 157.84 341.033 157.84V153.84ZM333.662 152.755C331.342 151.932 329.221 150.851 327.292 149.516L325.015 152.804C327.246 154.349 329.685 155.588 332.325 156.525L333.662 152.755ZM327.292 149.516C325.359 148.177 323.653 146.619 322.17 144.84L319.097 147.4C320.814 149.461 322.788 151.263 325.015 152.804L327.292 149.516ZM322.195 144.871C320.711 143.015 319.528 141.018 318.641 138.875L314.945 140.405C315.979 142.902 317.356 145.225 319.072 147.369L322.195 144.871ZM317.964 141.261L320.124 139.701L317.782 136.459L315.622 138.019L317.964 141.261ZM316.953 138.08V175.4H320.953V138.08H316.953ZM316.953 175.4C316.953 175.795 316.829 176.136 316.459 176.506L319.288 179.334C320.357 178.264 320.953 176.925 320.953 175.4H316.953ZM316.379 176.591C316.151 176.847 315.873 177 315.353 177V181C316.914 181 318.316 180.433 319.368 179.249L316.379 176.591ZM315.353 177C314.831 177 314.464 176.842 314.128 176.506L311.299 179.334C312.403 180.438 313.796 181 315.353 181V177ZM314.208 176.591C313.892 176.236 313.753 175.868 313.753 175.4H309.753C309.753 176.852 310.254 178.164 311.219 179.249L314.208 176.591ZM313.753 175.4V97.16H309.753V175.4H313.753ZM313.753 97.16C313.753 96.5675 313.921 96.1722 314.208 95.8487L311.219 93.1913C310.226 94.3078 309.753 95.6725 309.753 97.16H313.753ZM314.208 95.8487C314.406 95.6267 314.702 95.44 315.353 95.44V91.44C313.765 91.44 312.301 91.9733 311.219 93.1913L314.208 95.8487ZM315.353 95.44C315.873 95.44 316.151 95.5925 316.379 95.8487L319.368 93.1913C318.316 92.0075 316.914 91.44 315.353 91.44V95.44ZM316.459 95.9342C316.795 96.2702 316.953 96.6377 316.953 97.16H320.953C320.953 95.6023 320.392 94.2097 319.288 93.1058L316.459 95.9342ZM316.953 97.16V110.12H320.953V97.16H316.953ZM319.946 108.384L318.266 107.424L316.281 110.896L317.961 111.856L319.946 108.384ZM319.177 109.774C319.908 107.507 320.959 105.522 322.322 103.801L319.185 101.319C317.508 103.438 316.239 105.853 315.37 108.546L319.177 109.774ZM322.315 103.809C323.787 101.97 325.471 100.435 327.368 99.1939L325.179 95.8461C322.916 97.3255 320.92 99.1504 319.192 101.311L322.315 103.809ZM327.412 99.1644C329.311 97.8498 331.394 96.8618 333.671 96.2007L332.556 92.3593C329.873 93.1382 327.396 94.3102 325.135 95.8756L327.412 99.1644ZM333.671 96.2007C335.96 95.536 338.372 95.2 340.913 95.2V91.2C338.015 91.2 335.226 91.584 332.556 92.3593L333.671 96.2007ZM340.313 97.92C335.643 97.92 331.452 99.0933 327.813 101.49L330.013 104.83C332.934 102.907 336.344 101.92 340.313 101.92V97.92ZM327.842 101.471C324.245 103.752 321.411 106.905 319.34 110.875L322.887 112.725C324.655 109.335 327.022 106.728 329.985 104.849L327.842 101.471ZM319.333 110.89C317.324 114.82 316.353 119.342 316.353 124.4H320.353C320.353 119.858 321.223 115.98 322.894 112.71L319.333 110.89ZM316.353 124.4C316.353 129.386 317.327 133.932 319.317 137.999L322.91 136.241C321.22 132.788 320.353 128.854 320.353 124.4H316.353ZM319.332 138.03C321.397 142.074 324.223 145.306 327.813 147.67L330.013 144.33C327.044 142.374 324.669 139.686 322.895 136.21L319.332 138.03ZM327.842 147.689C331.478 149.994 335.658 151.12 340.313 151.12V147.12C336.329 147.12 332.909 146.166 329.985 144.311L327.842 147.689ZM340.313 151.12C344.896 151.12 349.004 149.991 352.563 147.677L350.383 144.323C347.543 146.169 344.211 147.12 340.313 147.12V151.12ZM352.573 147.67C356.164 145.306 358.989 142.074 361.055 138.03L357.492 136.21C355.717 139.686 353.343 142.374 350.373 144.33L352.573 147.67ZM361.055 138.03C363.135 133.956 364.153 129.398 364.153 124.4H360.153C360.153 128.842 359.252 132.764 357.492 136.21L361.055 138.03ZM364.153 124.4C364.153 119.402 363.135 114.878 361.047 110.875L357.5 112.725C359.252 116.082 360.153 119.958 360.153 124.4H364.153ZM361.047 110.875C358.975 106.905 356.142 103.752 352.545 101.471L350.402 104.849C353.365 106.728 355.731 109.335 357.5 112.725L361.047 110.875ZM352.592 101.502C349.03 99.0974 344.911 97.92 340.313 97.92V101.92C344.196 101.92 347.517 102.903 350.354 104.818L352.592 101.502ZM437.687 140.72L439.439 141.684L439.446 141.672L437.687 140.72ZM426.887 152.12L427.911 153.838L427.922 153.831L427.933 153.824L426.887 152.12ZM395.807 152.12L394.76 153.824L394.778 153.835L394.795 153.845L395.807 152.12ZM384.887 140.72L383.128 141.672L383.137 141.689L383.147 141.706L384.887 140.72ZM384.887 107.84L383.147 106.854L383.141 106.865L383.134 106.876L384.887 107.84ZM395.807 96.44L394.774 94.7276L394.767 94.7316L394.76 94.7357L395.807 96.44ZM426.887 96.44L427.933 94.7357L427.933 94.7357L426.887 96.44ZM437.687 107.84L435.934 108.804L437.687 107.84ZM431.447 111.32L429.673 112.244L429.677 112.252L429.681 112.259L431.447 111.32ZM423.167 102.32L422.076 103.996L422.098 104.011L422.121 104.025L423.167 102.32ZM399.527 102.32L400.573 104.025L400.587 104.016L400.601 104.007L399.527 102.32ZM391.127 111.32L389.368 110.367L389.365 110.374L389.361 110.381L391.127 111.32ZM391.127 137.24L389.361 138.179L389.369 138.194L389.377 138.208L391.127 137.24ZM399.527 146.24L398.453 147.927L398.467 147.936L398.481 147.945L399.527 146.24ZM423.167 146.24L424.23 147.934L424.241 147.927L423.167 146.24ZM431.447 137.24L433.213 138.179L433.213 138.179L431.447 137.24ZM439.647 124.28C439.647 130.06 438.395 135.208 435.928 139.768L439.446 141.672C442.259 136.472 443.647 130.66 443.647 124.28H439.647ZM435.934 139.756C433.457 144.26 430.098 147.802 425.84 150.416L427.933 153.824C432.796 150.838 436.636 146.78 439.439 141.684L435.934 139.756ZM425.862 150.402C421.643 152.919 416.803 154.2 411.287 154.2V158.2C417.45 158.2 423.011 156.761 427.911 153.838L425.862 150.402ZM411.287 154.2C405.942 154.2 401.134 152.925 396.818 150.395L394.795 153.845C399.76 156.755 405.272 158.2 411.287 158.2V154.2ZM396.853 150.416C392.591 147.798 389.186 144.249 386.627 139.734L383.147 141.706C386.028 146.791 389.903 150.842 394.76 153.824L396.853 150.416ZM386.646 139.768C384.179 135.208 382.927 130.06 382.927 124.28H378.927C378.927 130.66 380.315 136.472 383.128 141.672L386.646 139.768ZM382.927 124.28C382.927 118.414 384.181 113.273 386.639 108.804L383.134 106.876C380.313 112.007 378.927 117.826 378.927 124.28H382.927ZM386.627 108.826C389.186 104.311 392.591 100.762 396.853 98.1443L394.76 94.7357C389.903 97.7182 386.028 101.769 383.147 106.854L386.627 108.826ZM396.84 98.1524C401.153 95.5498 405.953 94.24 411.287 94.24V90.24C405.261 90.24 399.741 91.7302 394.774 94.7276L396.84 98.1524ZM411.287 94.24C416.792 94.24 421.624 95.5552 425.84 98.1443L427.933 94.7357C423.03 91.7248 417.461 90.24 411.287 90.24V94.24ZM425.84 98.1443C430.098 100.758 433.457 104.3 435.934 108.804L439.439 106.876C436.636 101.78 432.796 97.7216 427.933 94.7357L425.84 98.1443ZM435.934 108.804C438.393 113.273 439.647 118.414 439.647 124.28H443.647C443.647 117.826 442.261 112.007 439.439 106.876L435.934 108.804ZM436.447 124.28C436.447 119.121 435.388 114.47 433.213 110.381L429.681 112.259C431.506 115.69 432.447 119.679 432.447 124.28H436.447ZM433.221 110.396C431.062 106.251 428.057 102.974 424.213 100.615L422.121 104.025C425.317 105.986 427.832 108.709 429.673 112.244L433.221 110.396ZM424.258 100.644C420.464 98.1733 416.118 96.96 411.287 96.96V100.96C415.416 100.96 418.99 101.987 422.076 103.996L424.258 100.644ZM411.287 96.96C406.601 96.96 402.306 98.181 398.453 100.633L400.601 104.007C403.788 101.979 407.333 100.96 411.287 100.96V96.96ZM398.481 100.615C394.644 102.97 391.606 106.237 389.368 110.367L392.885 112.273C394.808 108.723 397.37 105.99 400.573 104.025L398.481 100.615ZM389.361 110.381C387.186 114.47 386.127 119.121 386.127 124.28H390.127C390.127 119.679 391.068 115.69 392.893 112.259L389.361 110.381ZM386.127 124.28C386.127 129.439 387.186 134.09 389.361 138.179L392.893 136.301C391.068 132.87 390.127 128.881 390.127 124.28H386.127ZM389.377 138.208C391.614 142.252 394.642 145.502 398.453 147.927L400.601 144.553C397.371 142.498 394.8 139.748 392.877 136.272L389.377 138.208ZM398.481 147.945C402.33 150.307 406.615 151.48 411.287 151.48V147.48C407.318 147.48 403.763 146.493 400.573 144.535L398.481 147.945ZM411.287 151.48C416.103 151.48 420.439 150.314 424.23 147.934L422.103 144.546C419.014 146.486 415.431 147.48 411.287 147.48V151.48ZM424.241 147.927C428.058 145.498 431.054 142.238 433.213 138.179L429.681 136.301C427.84 139.762 425.315 142.502 422.093 144.553L424.241 147.927ZM433.213 138.179C435.388 134.09 436.447 129.439 436.447 124.28H432.447C432.447 128.881 431.506 132.87 429.681 136.301L433.213 138.179ZM454.789 153.68L456.337 152.414L456.337 152.414L454.789 153.68ZM454.789 144.44L456.275 145.778L456.275 145.778L454.789 144.44ZM461.869 144.44L460.382 145.778L460.382 145.778L461.869 144.44ZM461.869 153.68L460.321 152.414L460.321 152.414L461.869 153.68ZM457.909 153C457.018 153 456.601 152.737 456.337 152.414L453.241 154.946C454.416 156.383 456.079 157 457.909 157V153ZM456.337 152.414C455.964 151.958 455.709 151.313 455.709 150.32H451.709C451.709 152.047 452.174 153.642 453.241 154.946L456.337 152.414ZM455.709 150.32V147.8H451.709V150.32H455.709ZM455.709 147.8C455.709 146.684 455.984 146.102 456.275 145.778L453.302 143.102C452.153 144.378 451.709 146.036 451.709 147.8H455.709ZM456.275 145.778C456.521 145.505 456.956 145.24 457.909 145.24V141.24C456.142 141.24 454.497 141.775 453.302 143.102L456.275 145.778ZM457.909 145.24H458.749V141.24H457.909V145.24ZM458.749 145.24C459.702 145.24 460.137 145.505 460.382 145.778L463.355 143.102C462.161 141.775 460.516 141.24 458.749 141.24V145.24ZM460.382 145.778C460.673 146.102 460.949 146.684 460.949 147.8H464.949C464.949 146.036 464.504 144.378 463.355 143.102L460.382 145.778ZM460.949 147.8V150.32H464.949V147.8H460.949ZM460.949 150.32C460.949 151.313 460.694 151.958 460.321 152.414L463.417 154.946C464.484 153.642 464.949 152.047 464.949 150.32H460.949ZM460.321 152.414C460.056 152.737 459.639 153 458.749 153V157C460.578 157 462.241 156.383 463.417 154.946L460.321 152.414ZM458.749 153H457.909V157H458.749V153ZM484.628 170.24L482.988 169.096L482.968 169.125L482.949 169.153L484.628 170.24ZM478.028 176.48L477.071 174.724L477.071 174.724L478.028 176.48ZM467.708 177.68L469.214 176.363L469.17 176.313L469.123 176.266L467.708 177.68ZM467.708 172.64L466.391 171.135L466.391 171.135L467.708 172.64ZM469.868 171.56L470.261 173.521L470.277 173.518L470.293 173.514L469.868 171.56ZM474.908 169.52L473.879 167.805L473.86 167.817L473.84 167.829L474.908 169.52ZM478.748 165.56L480.485 166.552L480.485 166.552L478.748 165.56ZM481.148 95L479.734 93.5858L479.693 93.6273L479.654 93.6713L481.148 95ZM486.308 95L484.814 96.3287L484.853 96.3727L484.894 96.4142L486.308 95ZM479.948 83.36L478.534 84.7742L478.605 84.8447L478.682 84.9079L479.948 83.36ZM480.068 75.56L481.335 77.1079L481.342 77.1022L481.349 77.0964L480.068 75.56ZM487.388 75.56L485.974 76.9742L486.045 77.0447L486.122 77.1079L487.388 75.56ZM487.388 83.36L488.726 84.8466L488.734 84.8399L487.388 83.36ZM485.388 160.52C485.388 164.032 484.552 166.853 482.988 169.096L486.269 171.384C488.385 168.347 489.388 164.688 489.388 160.52H485.388ZM482.949 169.153C481.356 171.616 479.396 173.456 477.071 174.724L478.986 178.236C481.941 176.624 484.381 174.304 486.308 171.327L482.949 169.153ZM477.071 174.724C474.683 176.027 472.37 176.64 470.108 176.64V180.64C473.127 180.64 476.094 179.813 478.986 178.236L477.071 174.724ZM470.108 176.64C469.505 176.64 469.311 176.474 469.214 176.363L466.203 178.997C467.226 180.166 468.632 180.64 470.108 180.64V176.64ZM469.123 176.266C468.846 175.989 468.748 175.733 468.748 175.4H464.748C464.748 176.827 465.291 178.091 466.294 179.094L469.123 176.266ZM468.748 175.4V174.92H464.748V175.4H468.748ZM468.748 174.92C468.748 174.454 468.878 174.274 469.025 174.145L466.391 171.135C465.259 172.126 464.748 173.466 464.748 174.92H468.748ZM469.025 174.145C469.414 173.805 469.818 173.61 470.261 173.521L469.476 169.599C468.319 169.83 467.283 170.355 466.391 171.135L469.025 174.145ZM470.293 173.514C472.35 173.067 474.25 172.301 475.976 171.211L473.84 167.829C472.527 168.659 471.066 169.253 469.444 169.606L470.293 173.514ZM475.937 171.235C477.842 170.092 479.361 168.518 480.485 166.552L477.012 164.568C476.215 165.962 475.174 167.028 473.879 167.805L475.937 171.235ZM480.485 166.552C481.655 164.506 482.188 162.105 482.188 159.44H478.188C478.188 161.575 477.762 163.254 477.012 164.568L480.485 166.552ZM482.188 159.44V97.52H478.188V159.44H482.188ZM482.188 97.52C482.188 97.0517 482.327 96.684 482.643 96.3287L479.654 93.6713C478.689 94.756 478.188 96.0683 478.188 97.52H482.188ZM482.563 96.4142C482.899 96.0782 483.266 95.92 483.788 95.92V91.92C482.231 91.92 480.838 92.4818 479.734 93.5858L482.563 96.4142ZM483.788 95.92C484.308 95.92 484.586 96.0725 484.814 96.3287L487.803 93.6713C486.751 92.4875 485.349 91.92 483.788 91.92V95.92ZM484.894 96.4142C485.264 96.7844 485.388 97.1251 485.388 97.52H489.388C489.388 95.9949 488.792 94.6556 487.723 93.5858L484.894 96.4142ZM485.388 97.52V160.52H489.388V97.52H485.388ZM483.788 82.44C482.357 82.44 481.602 82.1285 481.215 81.8121L478.682 84.9079C480.055 86.0315 481.86 86.44 483.788 86.44V82.44ZM481.363 81.9458C481.033 81.6161 480.748 81.0615 480.748 80H476.748C476.748 81.8185 477.264 83.5039 478.534 84.7742L481.363 81.9458ZM480.748 80V78.8H476.748V80H480.748ZM480.748 78.8C480.748 77.7861 481.039 77.3502 481.335 77.1079L478.802 74.0121C477.338 75.2098 476.748 76.9339 476.748 78.8H480.748ZM481.349 77.0964C481.858 76.6717 482.642 76.36 483.908 76.36V72.36C481.974 72.36 480.198 72.8482 478.788 74.0235L481.349 77.0964ZM483.908 76.36C485.086 76.36 485.664 76.6639 485.974 76.9742L488.803 74.1458C487.513 72.8561 485.771 72.36 483.908 72.36V76.36ZM486.122 77.1079C486.418 77.3502 486.708 77.7861 486.708 78.8H490.708C490.708 76.9339 490.119 75.2098 488.655 74.0121L486.122 77.1079ZM486.708 78.8V80H490.708V78.8H486.708ZM486.708 80C486.708 81.0053 486.42 81.5379 486.043 81.8801L488.734 84.8399C490.117 83.5821 490.708 81.8747 490.708 80H486.708ZM486.051 81.8734C485.761 82.1338 485.129 82.44 483.788 82.44V86.44C485.648 86.44 487.416 86.0262 488.726 84.8466L486.051 81.8734ZM507.492 145.28L505.828 146.389L505.875 146.46L505.927 146.525L507.492 145.28ZM506.532 142.52L504.539 142.354L504.532 142.437V142.52H506.532ZM508.092 140.24L509.1 141.968L509.265 141.871L509.409 141.745L508.092 140.24ZM510.252 139.52L510.053 141.51L510.062 141.511L510.071 141.512L510.252 139.52ZM512.652 140.72L514.236 139.498L514.157 139.397L514.066 139.306L512.652 140.72ZM520.452 147.56L519.45 149.291L519.477 149.306L519.504 149.321L520.452 147.56ZM538.092 149L538.725 150.897L538.745 150.891L538.765 150.883L538.092 149ZM543.612 145.52L545.064 146.895L545.082 146.877L545.099 146.858L543.612 145.52ZM543.612 133.52L542.16 134.895L542.16 134.895L543.612 133.52ZM537.972 129.92L537.241 131.782L537.252 131.786L537.263 131.79L537.972 129.92ZM530.772 127.64L530.26 129.573L530.274 129.577L530.287 129.58L530.772 127.64ZM522.852 125.24L522.15 127.113L522.176 127.122L522.202 127.131L522.852 125.24ZM516.012 121.76L514.812 123.36L514.849 123.388L514.888 123.414L516.012 121.76ZM519.732 94.4L518.911 92.5762L518.903 92.5801L518.894 92.5841L519.732 94.4ZM537.012 93.08L536.543 95.0242L536.575 95.0319L536.607 95.0385L537.012 93.08ZM543.852 95.6L542.908 97.363L543.852 95.6ZM549.852 100.52L548.325 101.812L548.379 101.875L548.438 101.934L549.852 100.52ZM549.732 105.44L550.932 107.04L551.004 106.986L551.07 106.927L549.732 105.44ZM545.412 105.2L546.917 103.883L546.912 103.877L546.907 103.871L545.412 105.2ZM523.452 99.8L524.13 101.682L524.15 101.674L524.17 101.667L523.452 99.8ZM518.412 103.16L519.903 104.494L519.903 104.494L518.412 103.16ZM516.372 109.16H514.372V109.229L514.377 109.298L516.372 109.16ZM518.772 114.8L517.358 116.214L517.377 116.233L517.397 116.252L518.772 114.8ZM524.652 118.4L523.909 120.257L523.92 120.261L523.93 120.265L524.652 118.4ZM532.932 121.04L532.423 122.974L532.435 122.977L532.447 122.98L532.932 121.04ZM540.252 123.32L539.543 125.19L539.553 125.194L539.564 125.198L540.252 123.32ZM546.492 126.68L545.269 128.263L545.309 128.293L545.35 128.322L546.492 126.68ZM550.812 131.6L549.038 132.523L549.052 132.55L549.067 132.577L550.812 131.6ZM549.492 148.28L547.916 147.049L547.904 147.064L547.892 147.08L549.492 148.28ZM541.692 154.16L540.926 152.313L540.926 152.313L541.692 154.16ZM518.172 153.68L517.398 155.524L517.411 155.529L518.172 153.68ZM509.156 144.171C508.668 143.438 508.532 142.899 508.532 142.52H504.532C504.532 143.901 505.036 145.202 505.828 146.389L509.156 144.171ZM508.525 142.686C508.542 142.483 508.604 142.257 509.1 141.968L507.084 138.512C505.661 139.343 504.682 140.637 504.539 142.354L508.525 142.686ZM509.409 141.745C509.66 141.526 509.839 141.489 510.053 141.51L510.451 137.53C509.066 137.391 507.805 137.834 506.775 138.735L509.409 141.745ZM510.071 141.512C510.415 141.543 510.796 141.692 511.238 142.134L514.066 139.306C513.069 138.308 511.849 137.657 510.433 137.528L510.071 141.512ZM511.069 141.942C513.386 144.946 516.183 147.4 519.45 149.291L521.454 145.829C518.641 144.2 516.238 142.094 514.236 139.498L511.069 141.942ZM519.504 149.321C522.968 151.186 526.986 152.08 531.492 152.08V148.08C527.518 148.08 524.177 147.294 521.4 145.799L519.504 149.321ZM531.492 152.08C533.951 152.08 536.364 151.684 538.725 150.897L537.46 147.103C535.5 147.756 533.514 148.08 531.492 148.08V152.08ZM538.765 150.883C541.26 149.992 543.38 148.673 545.064 146.895L542.16 144.145C540.964 145.407 539.404 146.408 537.42 147.117L538.765 150.883ZM545.099 146.858C546.908 144.848 547.772 142.353 547.772 139.52H543.772C543.772 141.487 543.196 142.992 542.126 144.182L545.099 146.858ZM547.772 139.52C547.772 136.629 546.92 134.103 545.064 132.145L542.16 134.895C543.185 135.977 543.772 137.451 543.772 139.52H547.772ZM545.064 132.145C543.382 130.369 541.231 129.017 538.681 128.05L537.263 131.79C539.353 132.583 540.962 133.631 542.16 134.895L545.064 132.145ZM538.703 128.058C536.376 127.144 533.893 126.359 531.257 125.7L530.287 129.58C532.771 130.201 535.088 130.936 537.241 131.782L538.703 128.058ZM531.284 125.707C528.609 124.998 526.015 124.212 523.502 123.349L522.202 127.131C524.809 128.028 527.496 128.842 530.26 129.573L531.284 125.707ZM523.554 123.367C521.124 122.456 518.989 121.366 517.137 120.106L514.888 123.414C517.035 124.874 519.46 126.104 522.15 127.113L523.554 123.367ZM517.212 120.16C515.493 118.871 514.11 117.343 513.047 115.571L509.617 117.629C510.954 119.857 512.691 121.769 514.812 123.36L517.212 120.16ZM513.047 115.571C512.073 113.947 511.532 111.882 511.532 109.28H507.532C507.532 112.438 508.191 115.253 509.617 117.629L513.047 115.571ZM511.532 109.28C511.532 106.31 512.337 103.764 513.916 101.567L510.668 99.2327C508.567 102.156 507.532 105.53 507.532 109.28H511.532ZM513.916 101.567C515.537 99.3126 517.735 97.5246 520.57 96.2159L518.894 92.5841C515.489 94.1554 512.728 96.3674 510.668 99.2327L513.916 101.567ZM520.553 96.2238C523.461 94.9151 526.776 94.24 530.532 94.24V90.24C526.289 90.24 522.403 91.0049 518.911 92.5762L520.553 96.2238ZM530.532 94.24C532.347 94.24 534.348 94.4944 536.543 95.0242L537.481 91.1358C535.036 90.5456 532.717 90.24 530.532 90.24V94.24ZM536.607 95.0385C538.726 95.4769 540.825 96.2471 542.908 97.363L544.797 93.837C542.399 92.5529 539.939 91.6431 537.417 91.1215L536.607 95.0385ZM542.908 97.363C544.91 98.4356 546.716 99.9102 548.325 101.812L551.379 99.2281C549.468 96.9698 547.274 95.1644 544.797 93.837L542.908 97.363ZM548.438 101.934C548.808 102.304 548.932 102.645 548.932 103.04H552.932C552.932 101.515 552.336 100.176 551.266 99.1058L548.438 101.934ZM548.932 103.04C548.932 103.229 548.875 103.521 548.394 103.953L551.07 106.927C552.19 105.919 552.932 104.611 552.932 103.04H548.932ZM548.532 103.84C548.273 104.034 547.945 104.16 547.452 104.16V108.16C548.719 108.16 549.911 107.806 550.932 107.04L548.532 103.84ZM547.452 104.16C547.269 104.16 547.125 104.12 546.917 103.883L543.907 106.517C544.82 107.56 546.035 108.16 547.452 108.16V104.16ZM546.907 103.871C544.792 101.491 542.268 99.6756 539.353 98.4388L537.791 102.121C540.156 103.124 542.193 104.589 543.917 106.529L546.907 103.871ZM539.353 98.4388C536.452 97.2078 533.344 96.6 530.052 96.6V100.6C532.84 100.6 535.413 101.112 537.791 102.121L539.353 98.4388ZM530.052 96.6C527.497 96.6 525.053 97.0416 522.734 97.9333L524.17 101.667C526.012 100.958 527.967 100.6 530.052 100.6V96.6ZM522.775 97.9182C520.476 98.7457 518.513 100.048 516.922 101.826L519.903 104.494C521.032 103.232 522.428 102.294 524.13 101.682L522.775 97.9182ZM516.922 101.826C515.166 103.788 514.372 106.299 514.372 109.16H518.372C518.372 107.061 518.938 105.572 519.903 104.494L516.922 101.826ZM514.377 109.298C514.565 112.027 515.528 114.384 517.358 116.214L520.186 113.386C519.136 112.336 518.499 110.933 518.367 109.022L514.377 109.298ZM517.397 116.252C519.138 117.901 521.328 119.224 523.909 120.257L525.395 116.543C523.176 115.656 521.447 114.579 520.148 113.348L517.397 116.252ZM523.93 120.265C526.491 121.256 529.324 122.158 532.423 122.974L533.441 119.106C530.461 118.322 527.773 117.464 525.374 116.535L523.93 120.265ZM532.447 122.98C534.936 123.602 537.301 124.339 539.543 125.19L540.961 121.45C538.564 120.541 536.049 119.758 533.417 119.1L532.447 122.98ZM539.564 125.198C541.8 126.018 543.693 127.045 545.269 128.263L547.715 125.097C545.771 123.595 543.505 122.382 540.941 121.442L539.564 125.198ZM545.35 128.322C546.923 129.416 548.146 130.808 549.038 132.523L552.587 130.677C551.398 128.392 549.742 126.504 547.634 125.038L545.35 128.322ZM549.067 132.577C549.974 134.197 550.492 136.354 550.492 139.16H554.492C554.492 135.886 553.89 133.003 552.557 130.623L549.067 132.577ZM550.492 139.16C550.492 142.273 549.618 144.87 547.916 147.049L551.068 149.511C553.366 146.57 554.492 143.087 554.492 139.16H550.492ZM547.892 147.08C546.21 149.323 543.912 151.074 540.926 152.313L542.458 156.007C546.032 154.526 548.934 152.357 551.092 149.48L547.892 147.08ZM540.926 152.313C537.918 153.56 534.542 154.2 530.772 154.2V158.2C535.002 158.2 538.907 157.48 542.458 156.007L540.926 152.313ZM530.772 154.2C526.719 154.2 522.777 153.413 518.934 151.831L517.411 155.529C521.727 157.307 526.185 158.2 530.772 158.2V154.2ZM518.947 151.836C515.301 150.305 512.001 147.733 509.057 144.035L505.927 146.525C509.224 150.667 513.043 153.695 517.398 155.524L518.947 151.836Z" fill="white"/>
</g>
</g>
</svg>
