<svg width="600" height="220" viewBox="0 0 600 220" fill="none" xmlns="http://www.w3.org/2000/svg">
<g id="logo">
<g id="compoLight">
<path d="M114.6 77.24C115.56 77.88 116.12 78.72 116.28 79.76C116.44 80.72 116.2 81.68 115.56 82.64C115 83.36 114.28 83.76 113.4 83.84C112.52 83.92 111.68 83.76 110.88 83.36C107.84 81.36 104.56 79.8 101.04 78.68C97.6 77.56 93.88 77 89.88 77C85 77 80.44 77.88 76.2 79.64C72.04 81.32 68.4 83.8 65.28 87.08C62.16 90.28 59.72 94.08 57.96 98.48C56.28 102.88 55.44 107.72 55.44 113C55.44 118.44 56.32 123.4 58.08 127.88C59.84 132.28 62.28 136.08 65.4 139.28C68.6 142.48 72.28 144.92 76.44 146.6C80.6 148.28 85.08 149.12 89.88 149.12C93.8 149.12 97.48 148.56 100.92 147.44C104.44 146.32 107.72 144.8 110.76 142.88C111.56 142.4 112.4 142.24 113.28 142.4C114.24 142.48 115 142.92 115.56 143.72C116.28 144.6 116.52 145.56 116.28 146.6C116.12 147.56 115.6 148.32 114.72 148.88C112.72 150.16 110.36 151.36 107.64 152.48C104.92 153.6 102.04 154.48 99 155.12C95.96 155.84 92.92 156.2 89.88 156.2C84.12 156.2 78.72 155.16 73.68 153.08C68.64 151 64.16 148.08 60.24 144.32C56.32 140.48 53.24 135.92 51 130.64C48.84 125.36 47.76 119.48 47.76 113C47.76 106.76 48.84 101.04 51 95.84C53.16 90.56 56.16 86 60 82.16C63.84 78.32 68.32 75.32 73.44 73.16C78.56 71 84.04 69.92 89.88 69.92C94.44 69.92 98.84 70.56 103.08 71.84C107.32 73.12 111.16 74.92 114.6 77.24Z" fill="#0D1116"/>
<path d="M186.998 124.28C186.998 130.36 185.678 135.84 183.038 140.72C180.398 145.52 176.798 149.32 172.238 152.12C167.678 154.84 162.478 156.2 156.638 156.2C150.958 156.2 145.798 154.84 141.158 152.12C136.598 149.32 132.958 145.52 130.238 140.72C127.598 135.84 126.278 130.36 126.278 124.28C126.278 118.12 127.598 112.64 130.238 107.84C132.958 103.04 136.598 99.24 141.158 96.44C145.798 93.64 150.958 92.24 156.638 92.24C162.478 92.24 167.678 93.64 172.238 96.44C176.798 99.24 180.398 103.04 183.038 107.84C185.678 112.64 186.998 118.12 186.998 124.28ZM179.798 124.28C179.798 119.4 178.798 115.08 176.798 111.32C174.798 107.48 172.038 104.48 168.518 102.32C165.078 100.08 161.118 98.96 156.638 98.96C152.318 98.96 148.398 100.08 144.878 102.32C141.358 104.48 138.558 107.48 136.478 111.32C134.478 115.08 133.478 119.4 133.478 124.28C133.478 129.16 134.478 133.48 136.478 137.24C138.558 141 141.358 144 144.878 146.24C148.398 148.4 152.318 149.48 156.638 149.48C161.118 149.48 165.078 148.4 168.518 146.24C172.038 144 174.798 141 176.798 137.24C178.798 133.48 179.798 129.16 179.798 124.28Z" fill="#0D1116"/>
<path d="M229.9 93.2C234.86 93.2 239.1 94.52 242.62 97.16C246.14 99.72 248.54 103.56 249.82 108.68L248.14 109.16L248.86 107C249.9 104.6 251.62 102.36 254.02 100.28C256.5 98.12 259.3 96.4 262.42 95.12C265.54 93.84 268.7 93.2 271.9 93.2C276.94 93.2 280.98 94.28 284.02 96.44C287.14 98.6 289.38 101.52 290.74 105.2C292.18 108.8 292.9 112.88 292.9 117.44V151.4C292.9 152.36 292.54 153.2 291.82 153.92C291.18 154.64 290.34 155 289.3 155C288.26 155 287.38 154.64 286.66 153.92C286.02 153.2 285.7 152.36 285.7 151.4V117.8C285.7 114.52 285.18 111.52 284.14 108.8C283.1 106.08 281.46 103.92 279.22 102.32C276.98 100.72 273.98 99.92 270.22 99.92C266.94 99.92 263.78 100.72 260.74 102.32C257.78 103.92 255.34 106.08 253.42 108.8C251.58 111.52 250.66 114.52 250.66 117.8V151.4C250.66 152.36 250.3 153.2 249.58 153.92C248.94 154.64 248.1 155 247.06 155C246.02 155 245.14 154.64 244.42 153.92C243.78 153.2 243.46 152.36 243.46 151.4V117.44C243.46 114.16 242.98 111.2 242.02 108.56C241.06 105.92 239.5 103.84 237.34 102.32C235.18 100.72 232.26 99.92 228.58 99.92C225.3 99.92 222.18 100.72 219.22 102.32C216.34 103.84 213.98 105.92 212.14 108.56C210.38 111.2 209.5 114.16 209.5 117.44V151.4C209.5 152.36 209.14 153.2 208.42 153.92C207.7 154.64 206.86 155 205.9 155C204.78 155 203.9 154.64 203.26 153.92C202.62 153.2 202.3 152.36 202.3 151.4V97.64C202.3 96.68 202.62 95.84 203.26 95.12C203.98 94.4 204.86 94.04 205.9 94.04C206.94 94.04 207.78 94.4 208.42 95.12C209.14 95.84 209.5 96.68 209.5 97.64V108.8L206.26 113.24C206.5 110.84 207.26 108.44 208.54 106.04C209.9 103.64 211.66 101.48 213.82 99.56C215.98 97.64 218.42 96.12 221.14 95C223.94 93.8 226.86 93.2 229.9 93.2Z" fill="#0D1116"/>
<path d="M340.913 93.2C346.353 93.2 351.153 94.56 355.313 97.28C359.553 99.92 362.913 103.6 365.393 108.32C367.873 112.96 369.113 118.32 369.113 124.4C369.113 130.48 367.873 135.88 365.393 140.6C362.913 145.32 359.553 149.04 355.313 151.76C351.073 154.48 346.313 155.84 341.033 155.84C338.233 155.84 335.553 155.44 332.993 154.64C330.513 153.76 328.233 152.6 326.153 151.16C324.073 149.72 322.233 148.04 320.633 146.12C319.033 144.12 317.753 141.96 316.793 139.64L318.953 138.08V175.4C318.953 176.36 318.593 177.2 317.873 177.92C317.233 178.64 316.393 179 315.353 179C314.313 179 313.433 178.64 312.713 177.92C312.073 177.2 311.753 176.36 311.753 175.4V97.16C311.753 96.12 312.073 95.24 312.713 94.52C313.353 93.8 314.233 93.44 315.353 93.44C316.393 93.44 317.233 93.8 317.873 94.52C318.593 95.24 318.953 96.12 318.953 97.16V110.12L317.273 109.16C318.073 106.68 319.233 104.48 320.753 102.56C322.353 100.56 324.193 98.88 326.273 97.52C328.353 96.08 330.633 95 333.113 94.28C335.593 93.56 338.193 93.2 340.913 93.2ZM340.313 99.92C335.993 99.92 332.193 101 328.913 103.16C325.633 105.24 323.033 108.12 321.113 111.8C319.273 115.4 318.353 119.6 318.353 124.4C318.353 129.12 319.273 133.36 321.113 137.12C323.033 140.88 325.633 143.84 328.913 146C332.193 148.08 335.993 149.12 340.313 149.12C344.553 149.12 348.273 148.08 351.473 146C354.753 143.84 357.353 140.88 359.273 137.12C361.193 133.36 362.153 129.12 362.153 124.4C362.153 119.68 361.193 115.48 359.273 111.8C357.353 108.12 354.753 105.24 351.473 103.16C348.273 101 344.553 99.92 340.313 99.92Z" fill="#0D1116"/>
<path d="M441.647 124.28C441.647 130.36 440.327 135.84 437.687 140.72C435.047 145.52 431.447 149.32 426.887 152.12C422.327 154.84 417.127 156.2 411.287 156.2C405.607 156.2 400.447 154.84 395.807 152.12C391.247 149.32 387.607 145.52 384.887 140.72C382.247 135.84 380.927 130.36 380.927 124.28C380.927 118.12 382.247 112.64 384.887 107.84C387.607 103.04 391.247 99.24 395.807 96.44C400.447 93.64 405.607 92.24 411.287 92.24C417.127 92.24 422.327 93.64 426.887 96.44C431.447 99.24 435.047 103.04 437.687 107.84C440.327 112.64 441.647 118.12 441.647 124.28ZM434.447 124.28C434.447 119.4 433.447 115.08 431.447 111.32C429.447 107.48 426.687 104.48 423.167 102.32C419.727 100.08 415.767 98.96 411.287 98.96C406.967 98.96 403.047 100.08 399.527 102.32C396.007 104.48 393.207 107.48 391.127 111.32C389.127 115.08 388.127 119.4 388.127 124.28C388.127 129.16 389.127 133.48 391.127 137.24C393.207 141 396.007 144 399.527 146.24C403.047 148.4 406.967 149.48 411.287 149.48C415.767 149.48 419.727 148.4 423.167 146.24C426.687 144 429.447 141 431.447 137.24C433.447 133.48 434.447 129.16 434.447 124.28Z" fill="#0D1116"/>
<path d="M457.909 155C456.549 155 455.509 154.56 454.789 153.68C454.069 152.8 453.709 151.68 453.709 150.32V147.8C453.709 146.36 454.069 145.24 454.789 144.44C455.509 143.64 456.549 143.24 457.909 143.24H458.749C460.109 143.24 461.149 143.64 461.869 144.44C462.589 145.24 462.949 146.36 462.949 147.8V150.32C462.949 151.68 462.589 152.8 461.869 153.68C461.149 154.56 460.109 155 458.749 155H457.909Z" fill="#0D1116"/>
<path d="M487.388 160.52C487.388 164.36 486.468 167.6 484.628 170.24C482.868 172.96 480.668 175.04 478.028 176.48C475.388 177.92 472.748 178.64 470.108 178.64C469.068 178.64 468.268 178.32 467.708 177.68C467.068 177.04 466.748 176.28 466.748 175.4V174.92C466.748 173.96 467.068 173.2 467.708 172.64C468.348 172.08 469.068 171.72 469.868 171.56C471.708 171.16 473.388 170.48 474.908 169.52C476.508 168.56 477.788 167.24 478.748 165.56C479.708 163.88 480.188 161.84 480.188 159.44V97.52C480.188 96.56 480.508 95.72 481.148 95C481.868 94.28 482.748 93.92 483.788 93.92C484.828 93.92 485.668 94.28 486.308 95C487.028 95.72 487.388 96.56 487.388 97.52V160.52ZM483.788 84.44C482.108 84.44 480.828 84.08 479.948 83.36C479.148 82.56 478.748 81.44 478.748 80V78.8C478.748 77.36 479.188 76.28 480.068 75.56C481.028 74.76 482.308 74.36 483.908 74.36C485.428 74.36 486.588 74.76 487.388 75.56C488.268 76.28 488.708 77.36 488.708 78.8V80C488.708 81.44 488.268 82.56 487.388 83.36C486.588 84.08 485.388 84.44 483.788 84.44Z" fill="#0D1116"/>
<path d="M507.492 145.28C506.852 144.32 506.532 143.4 506.532 142.52C506.612 141.56 507.132 140.8 508.092 140.24C508.732 139.68 509.452 139.44 510.252 139.52C511.132 139.6 511.932 140 512.652 140.72C514.812 143.52 517.412 145.8 520.452 147.56C523.572 149.24 527.252 150.08 531.492 150.08C533.732 150.08 535.932 149.72 538.092 149C540.332 148.2 542.172 147.04 543.612 145.52C545.052 143.92 545.772 141.92 545.772 139.52C545.772 137.04 545.052 135.04 543.612 133.52C542.172 132 540.292 130.8 537.972 129.92C535.732 129.04 533.332 128.28 530.772 127.64C528.052 126.92 525.412 126.12 522.852 125.24C520.292 124.28 518.012 123.12 516.012 121.76C514.092 120.32 512.532 118.6 511.332 116.6C510.132 114.6 509.532 112.16 509.532 109.28C509.532 105.92 510.452 102.96 512.292 100.4C514.132 97.84 516.612 95.84 519.732 94.4C522.932 92.96 526.532 92.24 530.532 92.24C532.532 92.24 534.692 92.52 537.012 93.08C539.332 93.56 541.612 94.4 543.852 95.6C546.092 96.8 548.092 98.44 549.852 100.52C550.572 101.24 550.932 102.08 550.932 103.04C550.932 103.92 550.532 104.72 549.732 105.44C549.092 105.92 548.332 106.16 547.452 106.16C546.652 106.16 545.972 105.84 545.412 105.2C543.492 103.04 541.212 101.4 538.572 100.28C535.932 99.16 533.092 98.6 530.052 98.6C527.732 98.6 525.532 99 523.452 99.8C521.452 100.52 519.772 101.64 518.412 103.16C517.052 104.68 516.372 106.68 516.372 109.16C516.532 111.48 517.332 113.36 518.772 114.8C520.292 116.24 522.252 117.44 524.652 118.4C527.132 119.36 529.892 120.24 532.932 121.04C535.492 121.68 537.932 122.44 540.252 123.32C542.652 124.2 544.732 125.32 546.492 126.68C548.332 127.96 549.772 129.6 550.812 131.6C551.932 133.6 552.492 136.12 552.492 139.16C552.492 142.68 551.492 145.72 549.492 148.28C547.572 150.84 544.972 152.8 541.692 154.16C538.412 155.52 534.772 156.2 530.772 156.2C526.452 156.2 522.252 155.36 518.172 153.68C514.172 152 510.612 149.2 507.492 145.28Z" fill="#0D1116"/>
</g>
<path id="compoLight (Stroke)" fill-rule="evenodd" clip-rule="evenodd" d="M117.184 83.8102L117.139 83.8679C116.251 85.0091 115.032 85.6998 113.581 85.8318C112.326 85.9459 111.114 85.713 109.986 85.1489L109.88 85.0959L109.781 85.0308C106.896 83.1329 103.782 81.6513 100.434 80.5858L100.421 80.5818C97.2007 79.5334 93.6918 79 89.88 79C85.2463 79 80.9487 79.8343 76.9668 81.4872L76.9579 81.4909L76.9489 81.4945C73.0561 83.0666 69.6542 85.3833 66.7291 88.4584L66.7206 88.4674L66.712 88.4762C63.7894 91.4737 61.4909 95.0431 59.8228 99.2081C58.2434 103.351 57.44 107.94 57.44 113C57.44 118.22 58.2833 122.925 59.9391 127.143C61.6058 131.307 63.9026 134.877 66.8232 137.875C69.8328 140.882 73.2841 143.169 77.1889 144.746C81.0947 146.323 85.3185 147.12 89.88 147.12C93.6073 147.12 97.0768 146.588 100.301 145.538L100.314 145.534C103.676 144.464 106.8 143.016 109.692 141.189L109.711 141.177L109.731 141.165C110.9 140.463 112.197 140.194 113.543 140.416C115.036 140.566 116.28 141.296 117.154 142.511C118.19 143.807 118.603 145.349 118.242 146.99C117.97 148.523 117.099 149.735 115.798 150.565C113.677 151.922 111.207 153.174 108.402 154.329C105.57 155.495 102.58 156.409 99.4364 157.072C96.2577 157.823 93.0712 158.2 89.88 158.2C83.8732 158.2 78.2125 157.114 72.917 154.929C67.6473 152.754 62.9563 149.697 58.8555 145.763L58.848 145.756L58.8404 145.749C54.7235 141.716 51.4971 136.933 49.1588 131.421L49.1538 131.409L49.1489 131.397C46.8781 125.846 45.76 119.705 45.76 113C45.76 106.527 46.8809 100.545 49.1509 95.0779C51.4061 89.5667 54.5498 84.7818 58.5858 80.7458C62.6127 76.7189 67.3103 73.5753 72.6626 71.3173C78.0411 69.0482 83.7868 67.92 89.88 67.92C94.63 67.92 99.225 68.5871 103.658 69.9253C108.075 71.2589 112.098 73.1411 115.714 75.5792C117.085 76.4946 117.998 77.799 118.255 79.443C118.509 80.9907 118.088 82.4534 117.224 83.7494L117.184 83.8102ZM116.28 79.76C116.12 78.72 115.56 77.88 114.6 77.24C111.16 74.92 107.32 73.12 103.08 71.84C98.84 70.56 94.44 69.92 89.88 69.92C84.04 69.92 78.56 71 73.44 73.16C68.32 75.32 63.84 78.32 60 82.16C56.16 86 53.16 90.56 51 95.84C48.84 101.04 47.76 106.76 47.76 113C47.76 119.48 48.84 125.36 51 130.64C53.24 135.92 56.32 140.48 60.24 144.32C64.16 148.08 68.64 151 73.68 153.08C78.72 155.16 84.12 156.2 89.88 156.2C92.92 156.2 95.96 155.84 99 155.12C102.04 154.48 104.92 153.6 107.64 152.48C110.36 151.36 112.72 150.16 114.72 148.88C115.6 148.32 116.12 147.56 116.28 146.6C116.52 145.56 116.28 144.6 115.56 143.72C115 142.92 114.24 142.48 113.28 142.4C112.4 142.24 111.56 142.4 110.76 142.88C107.72 144.8 104.44 146.32 100.92 147.44C97.48 148.56 93.8 149.12 89.88 149.12C85.08 149.12 80.6 148.28 76.44 146.6C72.28 144.92 68.6 142.48 65.4 139.28C62.28 136.08 59.84 132.28 58.08 127.88C56.32 123.4 55.44 118.44 55.44 113C55.44 107.72 56.28 102.88 57.96 98.48C59.72 94.08 62.16 90.28 65.28 87.08C68.4 83.8 72.04 81.32 76.2 79.64C80.44 77.88 85 77 89.88 77C93.88 77 97.6 77.56 101.04 78.68C104.56 79.8 107.84 81.36 110.88 83.36C111.68 83.76 112.52 83.92 113.4 83.84C114.28 83.76 115 83.36 115.56 82.64C116.2 81.68 116.44 80.72 116.28 79.76ZM184.798 141.672L184.791 141.684C181.988 146.78 178.148 150.838 173.285 153.824L173.274 153.831L173.263 153.838C168.363 156.761 162.802 158.2 156.638 158.2C150.624 158.2 145.111 156.755 140.147 153.845L140.129 153.835L140.112 153.824C135.255 150.842 131.38 146.791 128.498 141.706L128.489 141.689L128.479 141.672C125.666 136.472 124.278 130.66 124.278 124.28C124.278 117.826 125.664 112.007 128.486 106.876L128.492 106.865L128.498 106.854C131.38 101.769 135.255 97.7182 140.112 94.7357L140.118 94.7316L140.125 94.7276C145.092 91.7302 150.613 90.24 156.638 90.24C162.813 90.24 168.382 91.7248 173.285 94.7357C178.148 97.7216 181.988 101.78 184.791 106.876C187.613 112.007 188.998 117.826 188.998 124.28C188.998 130.66 187.61 136.472 184.798 141.672ZM175.029 112.252L175.025 112.244C173.184 108.709 170.668 105.986 167.472 104.025L167.45 104.011L167.427 103.996C164.341 101.987 160.768 100.96 156.638 100.96C152.685 100.96 149.14 101.979 145.952 104.007L145.938 104.016L145.924 104.025C142.723 105.989 140.163 108.719 138.241 112.265C136.418 115.695 135.478 119.682 135.478 124.28C135.478 128.874 136.416 132.858 138.236 136.286C140.156 139.751 142.72 142.493 145.938 144.544C149.125 146.496 152.676 147.48 156.638 147.48C160.78 147.48 164.362 146.487 167.449 144.55C170.67 142.499 173.192 139.761 175.033 136.301C176.858 132.87 177.798 128.881 177.798 124.28C177.798 119.679 176.858 115.69 175.033 112.259L175.029 112.252ZM168.518 146.24C165.078 148.4 161.118 149.48 156.638 149.48C152.318 149.48 148.398 148.4 144.878 146.24C141.358 144 138.558 141 136.478 137.24C134.478 133.48 133.478 129.16 133.478 124.28C133.478 119.4 134.478 115.08 136.478 111.32C138.558 107.48 141.358 104.48 144.878 102.32C148.398 100.08 152.318 98.96 156.638 98.96C161.118 98.96 165.078 100.08 168.518 102.32C172.038 104.48 174.798 107.48 176.798 111.32C178.798 115.08 179.798 119.4 179.798 124.28C179.798 129.16 178.798 133.48 176.798 137.24C174.798 141 172.038 144 168.518 146.24ZM211.5 101.888C212.214 101.076 212.988 100.3 213.82 99.56C215.98 97.64 218.42 96.12 221.14 95C223.94 93.8 226.86 93.2 229.9 93.2C234.86 93.2 239.1 94.52 242.62 97.16C244.971 98.8695 246.822 101.15 248.174 104.001C248.532 104.756 248.855 105.551 249.143 106.387C249.508 105.636 249.942 104.902 250.444 104.184C251.393 102.825 252.585 101.524 254.02 100.28C256.5 98.12 259.3 96.4 262.42 95.12C265.54 93.84 268.7 93.2 271.9 93.2C276.94 93.2 280.98 94.28 284.02 96.44C287.14 98.6 289.38 101.52 290.74 105.2C292.18 108.8 292.9 112.88 292.9 117.44V151.4C292.9 152.36 292.54 153.2 291.82 153.92C291.18 154.64 290.34 155 289.3 155C288.26 155 287.38 154.64 286.66 153.92C286.02 153.2 285.7 152.36 285.7 151.4V117.8C285.7 114.52 285.18 111.52 284.14 108.8C283.1 106.08 281.46 103.92 279.22 102.32C276.98 100.72 273.98 99.92 270.22 99.92C266.94 99.92 263.78 100.72 260.74 102.32C257.78 103.92 255.34 106.08 253.42 108.8C251.58 111.52 250.66 114.52 250.66 117.8V151.4C250.66 152.36 250.3 153.2 249.58 153.92C248.94 154.64 248.1 155 247.06 155C246.02 155 245.14 154.64 244.42 153.92C243.78 153.2 243.46 152.36 243.46 151.4V117.44C243.46 114.16 242.98 111.2 242.02 108.56C241.06 105.92 239.5 103.84 237.34 102.32C235.18 100.72 232.26 99.92 228.58 99.92C225.3 99.92 222.18 100.72 219.22 102.32C216.34 103.84 213.98 105.92 212.14 108.56C210.38 111.2 209.5 114.16 209.5 117.44V151.4C209.5 152.36 209.14 153.2 208.42 153.92C207.7 154.64 206.86 155 205.9 155C204.78 155 203.9 154.64 203.26 153.92C202.62 153.2 202.3 152.36 202.3 151.4V97.64C202.3 96.68 202.62 95.84 203.26 95.12C203.98 94.4 204.86 94.04 205.9 94.04C206.94 94.04 207.78 94.4 208.42 95.12C209.14 95.84 209.5 96.68 209.5 97.64V104.484C210.105 103.582 210.772 102.716 211.5 101.888ZM211.5 98.9875C211.822 98.6743 212.152 98.3668 212.492 98.0652C214.819 95.9964 217.447 94.3595 220.366 93.156C223.41 91.8533 226.594 91.2 229.9 91.2C235.23 91.2 239.901 92.6248 243.808 95.5511C246.167 97.2692 248.048 99.4787 249.472 102.136C250.396 100.959 251.477 99.8374 252.709 98.7702C255.357 96.4637 258.345 94.6302 261.661 93.2697C265.009 91.8962 268.426 91.2 271.9 91.2C277.204 91.2 281.687 92.3344 285.164 94.799C288.624 97.1957 291.109 100.444 292.607 104.481C294.15 108.349 294.9 112.679 294.9 117.44V151.4C294.9 152.906 294.319 154.23 293.275 155.293C292.227 156.447 290.841 157 289.3 157C287.743 157 286.35 156.438 285.246 155.334L285.205 155.293L285.165 155.249C284.201 154.164 283.7 152.852 283.7 151.4V117.8C283.7 114.734 283.215 111.979 282.272 109.514C281.364 107.139 279.959 105.305 278.058 103.947C276.261 102.664 273.713 101.92 270.22 101.92C267.284 101.92 264.445 102.632 261.681 104.085C259 105.536 256.802 107.482 255.066 109.937C253.457 112.322 252.66 114.927 252.66 117.8V151.4C252.66 152.906 252.079 154.23 251.035 155.293C249.987 156.447 248.601 157 247.06 157C245.503 157 244.11 156.438 243.006 155.334L242.965 155.293L242.925 155.249C241.961 154.164 241.46 152.852 241.46 151.4V117.44C241.46 114.355 241.009 111.631 240.141 109.243C239.311 106.962 237.993 105.225 236.189 103.956L236.169 103.942L236.15 103.927C234.441 102.661 231.987 101.92 228.58 101.92C225.641 101.92 222.847 102.633 220.171 104.079L220.163 104.084L220.154 104.089C217.559 105.458 215.446 107.32 213.793 109.687C212.267 111.982 211.5 114.548 211.5 117.44V151.4C211.5 152.925 210.904 154.264 209.835 155.334C208.765 156.404 207.425 157 205.9 157C204.311 157 202.848 156.467 201.765 155.249C200.801 154.164 200.3 152.852 200.3 151.4V97.64C200.3 96.1883 200.801 94.876 201.765 93.7913L201.805 93.7473L201.846 93.7058C202.95 92.6018 204.343 92.04 205.9 92.04C207.441 92.04 208.827 92.5932 209.875 93.7466C210.919 94.8096 211.5 96.1342 211.5 97.64V98.9875ZM320.953 102.313C322.506 100.421 324.28 98.8237 326.273 97.52C328.353 96.08 330.633 95 333.113 94.28C335.593 93.56 338.193 93.2 340.913 93.2C346.353 93.2 351.153 94.56 355.313 97.28C359.553 99.92 362.913 103.6 365.393 108.32C367.873 112.96 369.113 118.32 369.113 124.4C369.113 130.48 367.873 135.88 365.393 140.6C362.913 145.32 359.553 149.04 355.313 151.76C351.073 154.48 346.313 155.84 341.033 155.84C338.233 155.84 335.553 155.44 332.993 154.64C330.513 153.76 328.233 152.6 326.153 151.16C324.211 149.815 322.477 148.261 320.953 146.497C320.846 146.372 320.739 146.247 320.633 146.12C320.028 145.363 319.468 144.582 318.953 143.779V175.4C318.953 176.36 318.593 177.2 317.873 177.92C317.233 178.64 316.393 179 315.353 179C314.313 179 313.433 178.64 312.713 177.92C312.073 177.2 311.753 176.36 311.753 175.4V97.16C311.753 96.12 312.073 95.24 312.713 94.52C313.353 93.8 314.233 93.44 315.353 93.44C316.393 93.44 317.233 93.8 317.873 94.52C318.593 95.24 318.953 96.12 318.953 97.16V105.262C319.483 104.307 320.083 103.406 320.753 102.56C320.82 102.477 320.886 102.395 320.953 102.313ZM320.429 113.267C319.045 116.527 318.353 120.238 318.353 124.4C318.353 128.165 318.939 131.624 320.109 134.778C320.363 135.462 320.645 136.132 320.953 136.787C321.006 136.898 321.059 137.009 321.113 137.12C323.033 140.88 325.633 143.84 328.913 146C332.193 148.08 335.993 149.12 340.313 149.12C344.553 149.12 348.273 148.08 351.473 146C354.753 143.84 357.353 140.88 359.273 137.12C361.193 133.36 362.153 129.12 362.153 124.4C362.153 119.68 361.193 115.48 359.273 111.8C357.353 108.12 354.753 105.24 351.473 103.16C348.273 101 344.553 99.92 340.313 99.92C335.993 99.92 332.193 101 328.913 103.16C325.633 105.24 323.033 108.12 321.113 111.8C321.059 111.906 321.006 112.012 320.953 112.119C320.769 112.495 320.594 112.878 320.429 113.267ZM322.891 112.716C321.222 115.985 320.353 119.86 320.353 124.4C320.353 128.848 321.217 132.776 322.902 136.226C324.673 139.688 327.041 142.368 329.999 144.32C332.92 146.169 336.335 147.12 340.313 147.12C344.209 147.12 347.541 146.17 350.38 144.325C353.346 142.37 355.719 139.683 357.492 136.21C359.252 132.764 360.153 128.842 360.153 124.4C360.153 119.958 359.252 116.082 357.5 112.725C355.731 109.335 353.365 106.728 350.402 104.849L350.378 104.834L350.354 104.818C347.517 102.903 344.196 101.92 340.313 101.92C336.344 101.92 332.934 102.907 330.013 104.83L329.999 104.84L329.985 104.849C327.025 106.726 324.66 109.33 322.891 112.716ZM320.953 99.3193C322.234 98.0119 323.635 96.8579 325.157 95.8605C327.412 94.3026 329.882 93.1357 332.556 92.3593C335.226 91.584 338.015 91.2 340.913 91.2C346.696 91.2 351.878 92.6493 356.389 95.594C360.941 98.4326 364.531 102.381 367.161 107.383C369.816 112.354 371.113 118.045 371.113 124.4C371.113 130.758 369.815 136.485 367.164 141.53C364.533 146.538 360.942 150.525 356.393 153.443C351.815 156.38 346.677 157.84 341.033 157.84C338.04 157.84 335.158 157.412 332.397 156.549L332.361 156.538L332.325 156.525C329.685 155.588 327.246 154.349 325.015 152.804C323.552 151.791 322.197 150.666 320.953 149.428V175.4C320.953 176.906 320.372 178.23 319.328 179.293C318.28 180.447 316.894 181 315.353 181C313.796 181 312.403 180.438 311.299 179.334L311.258 179.293L311.219 179.249C310.254 178.164 309.753 176.852 309.753 175.4V97.16C309.753 95.6725 310.226 94.3078 311.219 93.1913C312.301 91.9733 313.765 91.44 315.353 91.44C316.894 91.44 318.281 91.9933 319.328 93.1468C320.405 94.2442 320.953 95.6215 320.953 97.16V99.3193ZM439.446 141.672L439.439 141.684C436.636 146.78 432.796 150.838 427.933 153.824L427.922 153.831L427.911 153.838C423.011 156.761 417.45 158.2 411.287 158.2C405.272 158.2 399.76 156.755 394.795 153.845L394.778 153.835L394.76 153.824C389.903 150.842 386.028 146.791 383.147 141.706L383.137 141.689L383.128 141.672C380.315 136.472 378.927 130.66 378.927 124.28C378.927 117.826 380.313 112.007 383.134 106.876L383.141 106.865L383.147 106.854C386.028 101.769 389.903 97.7182 394.76 94.7357L394.767 94.7316L394.774 94.7276C399.741 91.7302 405.261 90.24 411.287 90.24C417.461 90.24 423.03 91.7248 427.933 94.7357C432.796 97.7216 436.636 101.78 439.439 106.876C442.261 112.007 443.647 117.826 443.647 124.28C443.647 130.66 442.259 136.472 439.446 141.672ZM429.677 112.252L429.673 112.244C427.832 108.709 425.317 105.986 422.121 104.025L422.098 104.011L422.076 103.996C418.99 101.987 415.416 100.96 411.287 100.96C407.333 100.96 403.788 101.979 400.601 104.007L400.587 104.016L400.573 104.025C397.371 105.989 394.811 108.72 392.888 112.268C391.066 115.697 390.127 119.683 390.127 124.28C390.127 128.874 391.065 132.858 392.884 136.285C394.804 139.751 397.368 142.492 400.587 144.544C403.774 146.496 407.324 147.48 411.287 147.48C415.429 147.48 419.011 146.487 422.099 144.549C425.319 142.499 427.841 139.76 429.681 136.301C431.506 132.87 432.447 128.881 432.447 124.28C432.447 119.679 431.506 115.69 429.681 112.259L429.677 112.252ZM399.527 146.24C396.007 144 393.207 141 391.127 137.24C389.127 133.48 388.127 129.16 388.127 124.28C388.127 119.4 389.127 115.08 391.127 111.32C393.207 107.48 396.007 104.48 399.527 102.32C403.047 100.08 406.967 98.96 411.287 98.96C415.767 98.96 419.727 100.08 423.167 102.32C426.687 104.48 429.447 107.48 431.447 111.32C433.447 115.08 434.447 119.4 434.447 124.28C434.447 129.16 433.447 133.48 431.447 137.24C429.447 141 426.687 144 423.167 146.24C419.727 148.4 415.767 149.48 411.287 149.48C406.967 149.48 403.047 148.4 399.527 146.24ZM457.909 157C456.079 157 454.416 156.383 453.241 154.946C452.174 153.642 451.709 152.047 451.709 150.32V147.8C451.709 146.036 452.153 144.378 453.302 143.102C454.497 141.775 456.142 141.24 457.909 141.24H458.749C460.516 141.24 462.161 141.775 463.355 143.102C464.504 144.378 464.949 146.036 464.949 147.8V150.32C464.949 152.047 464.484 153.642 463.417 154.946C462.241 156.383 460.578 157 458.749 157H457.909ZM473.86 167.817L473.879 167.805C475.174 167.028 476.215 165.962 477.012 164.568C477.762 163.254 478.188 161.575 478.188 159.44V97.52C478.188 96.0683 478.689 94.756 479.654 93.6713L479.693 93.6273L479.734 93.5858C480.838 92.4818 482.231 91.92 483.788 91.92C485.329 91.92 486.715 92.4732 487.763 93.6266C488.808 94.6896 489.388 96.0142 489.388 97.52V160.52C489.388 164.675 488.392 168.324 486.289 171.355C484.365 174.319 481.932 176.629 478.986 178.236C476.094 179.813 473.127 180.64 470.108 180.64C468.653 180.64 467.268 180.18 466.249 179.048C465.275 178.053 464.748 176.805 464.748 175.4V174.92C464.748 173.466 465.259 172.126 466.391 171.135C467.278 170.359 468.307 169.836 469.458 169.603C471.075 169.249 472.531 168.656 473.84 167.829L473.86 167.817ZM469.868 171.56C469.068 171.72 468.348 172.08 467.708 172.64C467.068 173.2 466.748 173.96 466.748 174.92V175.4C466.748 176.28 467.068 177.04 467.708 177.68C468.268 178.32 469.068 178.64 470.108 178.64C472.748 178.64 475.388 177.92 478.028 176.48C480.668 175.04 482.868 172.96 484.628 170.24C486.468 167.6 487.388 164.36 487.388 160.52V97.52C487.388 96.56 487.028 95.72 486.308 95C485.668 94.28 484.828 93.92 483.788 93.92C482.748 93.92 481.868 94.28 481.148 95C480.508 95.72 480.188 96.56 480.188 97.52V159.44C480.188 161.84 479.708 163.88 478.748 165.56C477.788 167.24 476.508 168.56 474.908 169.52C473.388 170.48 471.708 171.16 469.868 171.56ZM478.605 84.8447L478.534 84.7742C477.264 83.5039 476.748 81.8185 476.748 80V78.8C476.748 76.9378 477.336 75.2169 478.793 74.0196C480.202 72.8471 481.977 72.36 483.908 72.36C485.737 72.36 487.449 72.8382 488.732 74.076C490.139 75.2707 490.708 76.9669 490.708 78.8V80C490.708 81.8747 490.117 83.5821 488.734 84.8399L488.726 84.8466C487.416 86.0262 485.648 86.44 483.788 86.44C481.86 86.44 480.055 86.0315 478.682 84.9079L478.605 84.8447ZM487.388 75.56C486.588 74.76 485.428 74.36 483.908 74.36C482.308 74.36 481.028 74.76 480.068 75.56C479.188 76.28 478.748 77.36 478.748 78.8V80C478.748 81.44 479.148 82.56 479.948 83.36C480.828 84.08 482.108 84.44 483.788 84.44C485.388 84.44 486.588 84.08 487.388 83.36C488.268 82.56 488.708 81.44 488.708 80V78.8C488.708 77.36 488.268 76.28 487.388 75.56ZM505.875 146.46L505.828 146.389C505.036 145.202 504.532 143.901 504.532 142.52V142.437L504.539 142.354C504.677 140.702 505.587 139.442 506.924 138.609C507.923 137.795 509.127 137.4 510.443 137.529C511.855 137.66 513.071 138.31 514.066 139.306L514.157 139.397L514.236 139.498C516.232 142.086 518.625 144.187 521.427 145.813C524.198 147.299 527.531 148.08 531.492 148.08C533.507 148.08 535.487 147.758 537.439 147.109C539.405 146.405 540.953 145.413 542.142 144.163C543.202 142.977 543.772 141.477 543.772 139.52C543.772 137.451 543.185 135.977 542.16 134.895C540.962 133.631 539.353 132.583 537.263 131.79L537.252 131.786L537.241 131.782C535.088 130.936 532.771 130.201 530.287 129.58L530.274 129.577L530.26 129.573C527.496 128.842 524.809 128.028 522.202 127.131L522.176 127.122L522.15 127.113C519.46 126.104 517.035 124.874 514.888 123.414L514.849 123.388L514.812 123.36C512.691 121.769 510.954 119.857 509.617 117.629C508.191 115.253 507.532 112.438 507.532 109.28C507.532 105.53 508.567 102.156 510.668 99.2327C512.728 96.3674 515.489 94.1554 518.894 92.5841L518.903 92.5801L518.911 92.5762C522.403 91.0049 526.289 90.24 530.532 90.24C532.708 90.24 535.016 90.543 537.45 91.1282C539.96 91.651 542.41 92.5584 544.797 93.837C547.253 95.1528 549.43 96.9384 551.329 99.1692C552.359 100.228 552.932 101.545 552.932 103.04C552.932 104.611 552.19 105.919 551.07 106.927L551.004 106.986L550.932 107.04C549.911 107.806 548.719 108.16 547.452 108.16C546.039 108.16 544.826 107.563 543.915 106.526C542.191 104.587 540.155 103.124 537.791 102.121C535.413 101.112 532.84 100.6 530.052 100.6C527.967 100.6 526.012 100.958 524.17 101.667L524.15 101.674L524.13 101.682C522.428 102.294 521.032 103.232 519.903 104.494C518.949 105.56 518.385 107.028 518.372 109.091C518.514 110.956 519.141 112.332 520.168 113.367C521.463 114.588 523.182 115.657 525.385 116.539C527.778 117.465 530.458 118.32 533.429 119.103C536.052 119.759 538.56 120.54 540.951 121.446C543.493 122.379 545.743 123.581 547.676 125.067C549.755 126.523 551.393 128.392 552.572 130.65C553.895 133.025 554.492 135.898 554.492 139.16C554.492 143.08 553.37 146.557 551.08 149.496C548.924 152.365 546.025 154.528 542.458 156.007C538.907 157.48 535.002 158.2 530.772 158.2C526.185 158.2 521.727 157.307 517.411 155.529L517.398 155.524C513.043 153.695 509.224 150.667 505.927 146.525L505.875 146.46ZM549.492 148.28C551.492 145.72 552.492 142.68 552.492 139.16C552.492 136.12 551.932 133.6 550.812 131.6C549.772 129.6 548.332 127.96 546.492 126.68C544.732 125.32 542.652 124.2 540.252 123.32C537.932 122.44 535.492 121.68 532.932 121.04C529.892 120.24 527.132 119.36 524.652 118.4C522.252 117.44 520.292 116.24 518.772 114.8C517.332 113.36 516.532 111.48 516.372 109.16C516.372 106.68 517.052 104.68 518.412 103.16C519.772 101.64 521.452 100.52 523.452 99.8C525.532 99 527.732 98.6 530.052 98.6C533.092 98.6 535.932 99.16 538.572 100.28C541.212 101.4 543.492 103.04 545.412 105.2C545.972 105.84 546.652 106.16 547.452 106.16C548.332 106.16 549.092 105.92 549.732 105.44C550.532 104.72 550.932 103.92 550.932 103.04C550.932 102.08 550.572 101.24 549.852 100.52C548.092 98.44 546.092 96.8 543.852 95.6C541.612 94.4 539.332 93.56 537.012 93.08C534.692 92.52 532.532 92.24 530.532 92.24C526.532 92.24 522.932 92.96 519.732 94.4C516.612 95.84 514.132 97.84 512.292 100.4C510.452 102.96 509.532 105.92 509.532 109.28C509.532 112.16 510.132 114.6 511.332 116.6C512.532 118.6 514.092 120.32 516.012 121.76C518.012 123.12 520.292 124.28 522.852 125.24C525.412 126.12 528.052 126.92 530.772 127.64C533.332 128.28 535.732 129.04 537.972 129.92C540.292 130.8 542.172 132 543.612 133.52C545.052 135.04 545.772 137.04 545.772 139.52C545.772 141.92 545.052 143.92 543.612 145.52C542.172 147.04 540.332 148.2 538.092 149C535.932 149.72 533.732 150.08 531.492 150.08C527.252 150.08 523.572 149.24 520.452 147.56C517.412 145.8 514.812 143.52 512.652 140.72C511.932 140 511.132 139.6 510.252 139.52C509.452 139.44 508.732 139.68 508.092 140.24C507.132 140.8 506.612 141.56 506.532 142.52C506.532 143.4 506.852 144.32 507.492 145.28C510.612 149.2 514.172 152 518.172 153.68C522.252 155.36 526.452 156.2 530.772 156.2C534.772 156.2 538.412 155.52 541.692 154.16C544.972 152.8 547.572 150.84 549.492 148.28ZM183.038 140.72C185.678 135.84 186.998 130.36 186.998 124.28C186.998 118.12 185.678 112.64 183.038 107.84C180.398 103.04 176.798 99.24 172.238 96.44C167.678 93.64 162.478 92.24 156.638 92.24C150.958 92.24 145.798 93.64 141.158 96.44C136.598 99.24 132.958 103.04 130.238 107.84C127.598 112.64 126.278 118.12 126.278 124.28C126.278 130.36 127.598 135.84 130.238 140.72C132.958 145.52 136.598 149.32 141.158 152.12C145.798 154.84 150.958 156.2 156.638 156.2C162.478 156.2 167.678 154.84 172.238 152.12C176.798 149.32 180.398 145.52 183.038 140.72ZM437.687 140.72C440.327 135.84 441.647 130.36 441.647 124.28C441.647 118.12 440.327 112.64 437.687 107.84C435.047 103.04 431.447 99.24 426.887 96.44C422.327 93.64 417.127 92.24 411.287 92.24C405.607 92.24 400.447 93.64 395.807 96.44C391.247 99.24 387.607 103.04 384.887 107.84C382.247 112.64 380.927 118.12 380.927 124.28C380.927 130.36 382.247 135.84 384.887 140.72C387.607 145.52 391.247 149.32 395.807 152.12C400.447 154.84 405.607 156.2 411.287 156.2C417.127 156.2 422.327 154.84 426.887 152.12C431.447 149.32 435.047 145.52 437.687 140.72ZM454.789 153.68C455.509 154.56 456.549 155 457.909 155H458.749C460.109 155 461.149 154.56 461.869 153.68C462.589 152.8 462.949 151.68 462.949 150.32V147.8C462.949 146.36 462.589 145.24 461.869 144.44C461.149 143.64 460.109 143.24 458.749 143.24H457.909C456.549 143.24 455.509 143.64 454.789 144.44C454.069 145.24 453.709 146.36 453.709 147.8V150.32C453.709 151.68 454.069 152.8 454.789 153.68Z" fill="white"/>
</g>
</svg>
