<svg width="600" height="220" viewBox="0 0 600 220" fill="none" xmlns="http://www.w3.org/2000/svg">
<g id="logo">
<g id="compoLight">
<path d="M68.84 77.24C69.8 77.88 70.36 78.72 70.52 79.76C70.68 80.72 70.44 81.68 69.8 82.64C69.24 83.36 68.52 83.76 67.64 83.84C66.76 83.92 65.92 83.76 65.12 83.36C62.08 81.36 58.8 79.8 55.28 78.68C51.84 77.56 48.12 77 44.12 77C39.24 77 34.68 77.88 30.44 79.64C26.28 81.32 22.64 83.8 19.52 87.08C16.4 90.28 13.96 94.08 12.2 98.48C10.52 102.88 9.68002 107.72 9.68002 113C9.68002 118.44 10.56 123.4 12.32 127.88C14.08 132.28 16.52 136.08 19.64 139.28C22.84 142.48 26.52 144.92 30.68 146.6C34.84 148.28 39.32 149.12 44.12 149.12C48.04 149.12 51.72 148.56 55.16 147.44C58.68 146.32 61.96 144.8 65 142.88C65.8 142.4 66.64 142.24 67.52 142.4C68.48 142.48 69.24 142.92 69.8 143.72C70.52 144.6 70.76 145.56 70.52 146.6C70.36 147.56 69.84 148.32 68.96 148.88C66.96 150.16 64.6 151.36 61.88 152.48C59.16 153.6 56.28 154.48 53.24 155.12C50.2 155.84 47.16 156.2 44.12 156.2C38.36 156.2 32.96 155.16 27.92 153.08C22.88 151 18.4 148.08 14.48 144.32C10.56 140.48 7.48002 135.92 5.24002 130.64C3.08001 125.36 2.00002 119.48 2.00002 113C2.00002 106.76 3.08001 101.04 5.24002 95.84C7.40002 90.56 10.4 86 14.24 82.16C18.08 78.32 22.56 75.32 27.68 73.16C32.8 71 38.28 69.92 44.12 69.92C48.68 69.92 53.08 70.56 57.32 71.84C61.56 73.12 65.4 74.92 68.84 77.24Z" fill="#0D1116"/>
<path d="M141.238 124.28C141.238 130.36 139.918 135.84 137.278 140.72C134.638 145.52 131.038 149.32 126.478 152.12C121.918 154.84 116.718 156.2 110.878 156.2C105.198 156.2 100.038 154.84 95.3985 152.12C90.8385 149.32 87.1985 145.52 84.4785 140.72C81.8385 135.84 80.5184 130.36 80.5184 124.28C80.5184 118.12 81.8385 112.64 84.4785 107.84C87.1985 103.04 90.8385 99.24 95.3985 96.44C100.038 93.64 105.198 92.24 110.878 92.24C116.718 92.24 121.918 93.64 126.478 96.44C131.038 99.24 134.638 103.04 137.278 107.84C139.918 112.64 141.238 118.12 141.238 124.28ZM134.038 124.28C134.038 119.4 133.038 115.08 131.038 111.32C129.038 107.48 126.278 104.48 122.758 102.32C119.318 100.08 115.358 98.96 110.878 98.96C106.558 98.96 102.638 100.08 99.1185 102.32C95.5985 104.48 92.7985 107.48 90.7185 111.32C88.7185 115.08 87.7185 119.4 87.7185 124.28C87.7185 129.16 88.7185 133.48 90.7185 137.24C92.7985 141 95.5985 144 99.1185 146.24C102.638 148.4 106.558 149.48 110.878 149.48C115.358 149.48 119.318 148.4 122.758 146.24C126.278 144 129.038 141 131.038 137.24C133.038 133.48 134.038 129.16 134.038 124.28Z" fill="#0D1116"/>
<path d="M184.14 93.2C189.1 93.2 193.34 94.52 196.86 97.16C200.38 99.72 202.78 103.56 204.06 108.68L202.38 109.16L203.1 107C204.14 104.6 205.86 102.36 208.26 100.28C210.74 98.12 213.54 96.4 216.66 95.12C219.78 93.84 222.94 93.2 226.14 93.2C231.18 93.2 235.22 94.28 238.26 96.44C241.38 98.6 243.62 101.52 244.98 105.2C246.42 108.8 247.14 112.88 247.14 117.44V151.4C247.14 152.36 246.78 153.2 246.06 153.92C245.42 154.64 244.58 155 243.54 155C242.5 155 241.62 154.64 240.9 153.92C240.26 153.2 239.94 152.36 239.94 151.4V117.8C239.94 114.52 239.42 111.52 238.38 108.8C237.34 106.08 235.7 103.92 233.46 102.32C231.22 100.72 228.22 99.92 224.46 99.92C221.18 99.92 218.02 100.72 214.98 102.32C212.02 103.92 209.58 106.08 207.66 108.8C205.82 111.52 204.9 114.52 204.9 117.8V151.4C204.9 152.36 204.54 153.2 203.82 153.92C203.18 154.64 202.34 155 201.3 155C200.26 155 199.38 154.64 198.66 153.92C198.02 153.2 197.7 152.36 197.7 151.4V117.44C197.7 114.16 197.22 111.2 196.26 108.56C195.3 105.92 193.74 103.84 191.58 102.32C189.42 100.72 186.5 99.92 182.82 99.92C179.54 99.92 176.42 100.72 173.46 102.32C170.58 103.84 168.22 105.92 166.38 108.56C164.62 111.2 163.74 114.16 163.74 117.44V151.4C163.74 152.36 163.38 153.2 162.66 153.92C161.94 154.64 161.1 155 160.14 155C159.02 155 158.14 154.64 157.5 153.92C156.86 153.2 156.54 152.36 156.54 151.4V97.64C156.54 96.68 156.86 95.84 157.5 95.12C158.22 94.4 159.1 94.04 160.14 94.04C161.18 94.04 162.02 94.4 162.66 95.12C163.38 95.84 163.74 96.68 163.74 97.64V108.8L160.5 113.24C160.74 110.84 161.5 108.44 162.78 106.04C164.14 103.64 165.9 101.48 168.06 99.56C170.22 97.64 172.66 96.12 175.38 95C178.18 93.8 181.1 93.2 184.14 93.2Z" fill="#0D1116"/>
<path d="M295.153 93.2C300.593 93.2 305.393 94.56 309.553 97.28C313.793 99.92 317.153 103.6 319.633 108.32C322.113 112.96 323.353 118.32 323.353 124.4C323.353 130.48 322.113 135.88 319.633 140.6C317.153 145.32 313.793 149.04 309.553 151.76C305.313 154.48 300.553 155.84 295.273 155.84C292.473 155.84 289.793 155.44 287.233 154.64C284.753 153.76 282.473 152.6 280.393 151.16C278.313 149.72 276.473 148.04 274.873 146.12C273.273 144.12 271.993 141.96 271.033 139.64L273.193 138.08V175.4C273.193 176.36 272.833 177.2 272.113 177.92C271.473 178.64 270.633 179 269.593 179C268.553 179 267.673 178.64 266.953 177.92C266.313 177.2 265.993 176.36 265.993 175.4V97.16C265.993 96.12 266.313 95.24 266.953 94.52C267.593 93.8 268.473 93.44 269.593 93.44C270.633 93.44 271.473 93.8 272.113 94.52C272.833 95.24 273.193 96.12 273.193 97.16V110.12L271.513 109.16C272.313 106.68 273.473 104.48 274.993 102.56C276.593 100.56 278.433 98.88 280.513 97.52C282.593 96.08 284.873 95 287.353 94.28C289.833 93.56 292.433 93.2 295.153 93.2ZM294.553 99.92C290.233 99.92 286.433 101 283.153 103.16C279.873 105.24 277.273 108.12 275.353 111.8C273.513 115.4 272.593 119.6 272.593 124.4C272.593 129.12 273.513 133.36 275.353 137.12C277.273 140.88 279.873 143.84 283.153 146C286.433 148.08 290.233 149.12 294.553 149.12C298.793 149.12 302.513 148.08 305.713 146C308.993 143.84 311.593 140.88 313.513 137.12C315.433 133.36 316.393 129.12 316.393 124.4C316.393 119.68 315.433 115.48 313.513 111.8C311.593 108.12 308.993 105.24 305.713 103.16C302.513 101 298.793 99.92 294.553 99.92Z" fill="#0D1116"/>
<path d="M395.887 124.28C395.887 130.36 394.567 135.84 391.927 140.72C389.287 145.52 385.687 149.32 381.127 152.12C376.567 154.84 371.367 156.2 365.527 156.2C359.847 156.2 354.687 154.84 350.047 152.12C345.487 149.32 341.847 145.52 339.127 140.72C336.487 135.84 335.167 130.36 335.167 124.28C335.167 118.12 336.487 112.64 339.127 107.84C341.847 103.04 345.487 99.24 350.047 96.44C354.687 93.64 359.847 92.24 365.527 92.24C371.367 92.24 376.567 93.64 381.127 96.44C385.687 99.24 389.287 103.04 391.927 107.84C394.567 112.64 395.887 118.12 395.887 124.28ZM388.687 124.28C388.687 119.4 387.687 115.08 385.687 111.32C383.687 107.48 380.927 104.48 377.407 102.32C373.967 100.08 370.007 98.96 365.527 98.96C361.207 98.96 357.287 100.08 353.767 102.32C350.247 104.48 347.447 107.48 345.367 111.32C343.367 115.08 342.367 119.4 342.367 124.28C342.367 129.16 343.367 133.48 345.367 137.24C347.447 141 350.247 144 353.767 146.24C357.287 148.4 361.207 149.48 365.527 149.48C370.007 149.48 373.967 148.4 377.407 146.24C380.927 144 383.687 141 385.687 137.24C387.687 133.48 388.687 129.16 388.687 124.28Z" fill="#0D1116"/>
<path d="M412.149 155C410.789 155 409.749 154.56 409.029 153.68C408.309 152.8 407.949 151.68 407.949 150.32V147.8C407.949 146.36 408.309 145.24 409.029 144.44C409.749 143.64 410.789 143.24 412.149 143.24H412.989C414.349 143.24 415.389 143.64 416.109 144.44C416.829 145.24 417.189 146.36 417.189 147.8V150.32C417.189 151.68 416.829 152.8 416.109 153.68C415.389 154.56 414.349 155 412.989 155H412.149Z" fill="#0D1116"/>
<path d="M441.628 160.52C441.628 164.36 440.708 167.6 438.868 170.24C437.108 172.96 434.908 175.04 432.268 176.48C429.628 177.92 426.988 178.64 424.348 178.64C423.308 178.64 422.508 178.32 421.948 177.68C421.308 177.04 420.988 176.28 420.988 175.4V174.92C420.988 173.96 421.308 173.2 421.948 172.64C422.588 172.08 423.308 171.72 424.108 171.56C425.948 171.16 427.628 170.48 429.148 169.52C430.748 168.56 432.028 167.24 432.988 165.56C433.948 163.88 434.428 161.84 434.428 159.44V97.52C434.428 96.56 434.748 95.72 435.388 95C436.108 94.28 436.988 93.92 438.028 93.92C439.068 93.92 439.908 94.28 440.548 95C441.268 95.72 441.628 96.56 441.628 97.52V160.52ZM438.028 84.44C436.348 84.44 435.068 84.08 434.188 83.36C433.388 82.56 432.988 81.44 432.988 80V78.8C432.988 77.36 433.428 76.28 434.308 75.56C435.268 74.76 436.548 74.36 438.148 74.36C439.668 74.36 440.828 74.76 441.628 75.56C442.508 76.28 442.948 77.36 442.948 78.8V80C442.948 81.44 442.508 82.56 441.628 83.36C440.828 84.08 439.628 84.44 438.028 84.44Z" fill="#0D1116"/>
<path d="M461.732 145.28C461.092 144.32 460.772 143.4 460.772 142.52C460.852 141.56 461.372 140.8 462.332 140.24C462.972 139.68 463.692 139.44 464.492 139.52C465.372 139.6 466.172 140 466.892 140.72C469.052 143.52 471.652 145.8 474.692 147.56C477.812 149.24 481.492 150.08 485.732 150.08C487.972 150.08 490.172 149.72 492.332 149C494.572 148.2 496.412 147.04 497.852 145.52C499.292 143.92 500.012 141.92 500.012 139.52C500.012 137.04 499.292 135.04 497.852 133.52C496.412 132 494.532 130.8 492.212 129.92C489.972 129.04 487.572 128.28 485.012 127.64C482.292 126.92 479.652 126.12 477.092 125.24C474.532 124.28 472.252 123.12 470.252 121.76C468.332 120.32 466.772 118.6 465.572 116.6C464.372 114.6 463.772 112.16 463.772 109.28C463.772 105.92 464.692 102.96 466.532 100.4C468.372 97.84 470.852 95.84 473.972 94.4C477.172 92.96 480.772 92.24 484.772 92.24C486.772 92.24 488.932 92.52 491.252 93.08C493.572 93.56 495.852 94.4 498.092 95.6C500.332 96.8 502.332 98.44 504.092 100.52C504.812 101.24 505.172 102.08 505.172 103.04C505.172 103.92 504.772 104.72 503.972 105.44C503.332 105.92 502.572 106.16 501.692 106.16C500.892 106.16 500.212 105.84 499.652 105.2C497.732 103.04 495.452 101.4 492.812 100.28C490.172 99.16 487.332 98.6 484.292 98.6C481.972 98.6 479.772 99 477.692 99.8C475.692 100.52 474.012 101.64 472.652 103.16C471.292 104.68 470.612 106.68 470.612 109.16C470.772 111.48 471.572 113.36 473.012 114.8C474.532 116.24 476.492 117.44 478.892 118.4C481.372 119.36 484.132 120.24 487.172 121.04C489.732 121.68 492.172 122.44 494.492 123.32C496.892 124.2 498.972 125.32 500.732 126.68C502.572 127.96 504.012 129.6 505.052 131.6C506.172 133.6 506.732 136.12 506.732 139.16C506.732 142.68 505.732 145.72 503.732 148.28C501.812 150.84 499.212 152.8 495.932 154.16C492.652 155.52 489.012 156.2 485.012 156.2C480.692 156.2 476.492 155.36 472.412 153.68C468.412 152 464.852 149.2 461.732 145.28Z" fill="#0D1116"/>
</g>
<path id="compoLight (Stroke)" fill-rule="evenodd" clip-rule="evenodd" d="M71.4236 83.8102L71.3787 83.8679C70.4911 85.0091 69.2724 85.6998 67.8211 85.8318C66.5659 85.9459 65.3539 85.713 64.2256 85.1489L64.1197 85.0959L64.0208 85.0308C61.1358 83.1329 58.022 81.6513 54.6736 80.5858L54.6608 80.5818C51.4407 79.5334 47.9318 79 44.12 79C39.4864 79 35.1887 79.8343 31.2068 81.4872L31.1979 81.4909L31.1889 81.4945C27.2961 83.0666 23.8942 85.3833 20.9691 88.4584L20.9606 88.4674L20.952 88.4762C18.0294 91.4737 15.7309 95.0431 14.0628 99.2081C12.4834 103.351 11.68 107.94 11.68 113C11.68 118.22 12.5233 122.925 14.1791 127.143C15.8458 131.307 18.1426 134.877 21.0632 137.875C24.0728 140.882 27.5241 143.169 31.4289 144.746C35.3347 146.323 39.5585 147.12 44.12 147.12C47.8473 147.12 51.3168 146.588 54.5408 145.538L54.5536 145.534C57.9157 144.464 61.04 143.016 63.932 141.189L63.9514 141.177L63.971 141.165C65.1402 140.463 66.4372 140.194 67.7829 140.416C69.2759 140.566 70.5197 141.296 71.3944 142.511C72.4299 143.807 72.8426 145.349 72.4823 146.99C72.2096 148.523 71.3387 149.735 70.0381 150.565C67.9173 151.922 65.4468 153.174 62.6415 154.329C59.8097 155.495 56.8204 156.409 53.6764 157.072C50.4977 157.823 47.3113 158.2 44.12 158.2C38.1132 158.2 32.4525 157.114 27.157 154.929C21.8873 152.754 17.1963 149.697 13.0956 145.763L13.088 145.756L13.0804 145.749C8.96348 141.716 5.73714 136.933 3.39884 131.421L3.39379 131.409L3.38891 131.397C1.11811 125.846 0 119.705 0 113C0 106.527 1.1209 100.545 3.39089 95.0779C5.64615 89.5667 8.78976 84.7818 12.8258 80.7458C16.8527 76.7189 21.5503 73.5753 26.9026 71.3173C32.2811 69.0482 38.0268 67.92 44.12 67.92C48.87 67.92 53.465 68.5871 57.898 69.9253C62.3154 71.2589 66.3383 73.1411 69.9544 75.5792C71.3249 76.4946 72.2381 77.799 72.4948 79.443C72.7493 80.9907 72.3281 82.4534 71.4641 83.7494L71.4236 83.8102ZM70.52 79.76C70.36 78.72 69.8 77.88 68.84 77.24C65.4 74.92 61.56 73.12 57.32 71.84C53.08 70.56 48.68 69.92 44.12 69.92C38.28 69.92 32.8 71 27.68 73.16C22.56 75.32 18.08 78.32 14.24 82.16C10.4 86 7.4 90.56 5.24 95.84C3.08 101.04 2 106.76 2 113C2 119.48 3.08 125.36 5.24 130.64C7.48 135.92 10.56 140.48 14.48 144.32C18.4 148.08 22.88 151 27.92 153.08C32.96 155.16 38.36 156.2 44.12 156.2C47.16 156.2 50.2 155.84 53.24 155.12C56.28 154.48 59.16 153.6 61.88 152.48C64.6 151.36 66.96 150.16 68.96 148.88C69.84 148.32 70.36 147.56 70.52 146.6C70.76 145.56 70.52 144.6 69.8 143.72C69.24 142.92 68.48 142.48 67.52 142.4C66.64 142.24 65.8 142.4 65 142.88C61.96 144.8 58.68 146.32 55.16 147.44C51.72 148.56 48.04 149.12 44.12 149.12C39.32 149.12 34.84 148.28 30.68 146.6C26.52 144.92 22.84 142.48 19.64 139.28C16.52 136.08 14.08 132.28 12.32 127.88C10.56 123.4 9.68 118.44 9.68 113C9.68 107.72 10.52 102.88 12.2 98.48C13.96 94.08 16.4 90.28 19.52 87.08C22.64 83.8 26.28 81.32 30.44 79.64C34.68 77.88 39.24 77 44.12 77C48.12 77 51.84 77.56 55.28 78.68C58.8 79.8 62.08 81.36 65.12 83.36C65.92 83.76 66.76 83.92 67.64 83.84C68.52 83.76 69.24 83.36 69.8 82.64C70.44 81.68 70.68 80.72 70.52 79.76ZM139.038 141.672L139.031 141.684C136.228 146.78 132.388 150.838 127.525 153.824L127.514 153.831L127.503 153.838C122.603 156.761 117.042 158.2 110.878 158.2C104.864 158.2 99.3511 156.755 94.387 153.845L94.3693 153.835L94.3519 153.824C89.4946 150.842 85.6197 146.791 82.7384 141.706L82.7287 141.689L82.7193 141.672C79.9064 136.472 78.5184 130.66 78.5184 124.28C78.5184 117.826 79.9042 112.007 82.726 106.876L82.7321 106.865L82.7384 106.854C85.6197 101.769 89.4946 97.7182 94.3519 94.7357L94.3585 94.7316L94.3651 94.7276C99.3322 91.7302 104.853 90.24 110.878 90.24C117.053 90.24 122.622 91.7248 127.525 94.7357C132.388 97.7216 136.228 101.78 139.031 106.876C141.853 112.007 143.238 117.826 143.238 124.28C143.238 130.66 141.85 136.472 139.038 141.672ZM129.269 112.252L129.265 112.244C127.424 108.709 124.908 105.986 121.712 104.025L121.69 104.011L121.667 103.996C118.581 101.987 115.008 100.96 110.878 100.96C106.925 100.96 103.38 101.979 100.192 104.007L100.178 104.016L100.164 104.025C96.9635 105.989 94.4031 108.719 92.4809 112.265C90.658 115.695 89.7184 119.682 89.7184 124.28C89.7184 128.874 90.6565 132.858 92.4765 136.286C94.3961 139.751 96.96 142.493 100.178 144.544C103.365 146.496 106.916 147.48 110.878 147.48C115.02 147.48 118.602 146.487 121.689 144.55C124.91 142.499 127.432 139.761 129.273 136.301C131.098 132.87 132.038 128.881 132.038 124.28C132.038 119.679 131.098 115.69 129.273 112.259L129.269 112.252ZM122.758 146.24C119.318 148.4 115.358 149.48 110.878 149.48C106.558 149.48 102.638 148.4 99.1184 146.24C95.5984 144 92.7984 141 90.7184 137.24C88.7184 133.48 87.7184 129.16 87.7184 124.28C87.7184 119.4 88.7184 115.08 90.7184 111.32C92.7984 107.48 95.5984 104.48 99.1184 102.32C102.638 100.08 106.558 98.96 110.878 98.96C115.358 98.96 119.318 100.08 122.758 102.32C126.278 104.48 129.038 107.48 131.038 111.32C133.038 115.08 134.038 119.4 134.038 124.28C134.038 129.16 133.038 133.48 131.038 137.24C129.038 141 126.278 144 122.758 146.24ZM165.74 101.888C166.454 101.076 167.228 100.3 168.06 99.56C170.22 97.64 172.66 96.12 175.38 95C178.18 93.8 181.1 93.2 184.14 93.2C189.1 93.2 193.34 94.52 196.86 97.16C199.211 98.8695 201.062 101.15 202.414 104.001C202.772 104.756 203.095 105.551 203.383 106.387C203.748 105.636 204.182 104.902 204.684 104.184C205.633 102.825 206.825 101.524 208.26 100.28C210.74 98.12 213.54 96.4 216.66 95.12C219.78 93.84 222.94 93.2 226.14 93.2C231.18 93.2 235.22 94.28 238.26 96.44C241.38 98.6 243.62 101.52 244.98 105.2C246.42 108.8 247.14 112.88 247.14 117.44V151.4C247.14 152.36 246.78 153.2 246.06 153.92C245.42 154.64 244.58 155 243.54 155C242.5 155 241.62 154.64 240.9 153.92C240.26 153.2 239.94 152.36 239.94 151.4V117.8C239.94 114.52 239.42 111.52 238.38 108.8C237.34 106.08 235.7 103.92 233.46 102.32C231.22 100.72 228.22 99.92 224.46 99.92C221.18 99.92 218.02 100.72 214.98 102.32C212.02 103.92 209.58 106.08 207.66 108.8C205.82 111.52 204.9 114.52 204.9 117.8V151.4C204.9 152.36 204.54 153.2 203.82 153.92C203.18 154.64 202.34 155 201.3 155C200.26 155 199.38 154.64 198.66 153.92C198.02 153.2 197.7 152.36 197.7 151.4V117.44C197.7 114.16 197.22 111.2 196.26 108.56C195.3 105.92 193.74 103.84 191.58 102.32C189.42 100.72 186.5 99.92 182.82 99.92C179.54 99.92 176.42 100.72 173.46 102.32C170.58 103.84 168.22 105.92 166.38 108.56C164.62 111.2 163.74 114.16 163.74 117.44V151.4C163.74 152.36 163.38 153.2 162.66 153.92C161.94 154.64 161.1 155 160.14 155C159.02 155 158.14 154.64 157.5 153.92C156.86 153.2 156.54 152.36 156.54 151.4V97.64C156.54 96.68 156.86 95.84 157.5 95.12C158.22 94.4 159.1 94.04 160.14 94.04C161.18 94.04 162.02 94.4 162.66 95.12C163.38 95.84 163.74 96.68 163.74 97.64V104.484C164.345 103.582 165.012 102.716 165.74 101.888ZM165.74 98.9875C166.062 98.6743 166.392 98.3668 166.732 98.0652C169.059 95.9964 171.687 94.3595 174.606 93.156C177.65 91.8533 180.834 91.2 184.14 91.2C189.47 91.2 194.141 92.6248 198.048 95.5511C200.407 97.2692 202.288 99.4787 203.712 102.136C204.636 100.959 205.717 99.8374 206.949 98.7702C209.597 96.4637 212.585 94.6302 215.901 93.2697C219.249 91.8962 222.666 91.2 226.14 91.2C231.444 91.2 235.927 92.3344 239.404 94.799C242.864 97.1957 245.349 100.444 246.847 104.481C248.39 108.349 249.14 112.679 249.14 117.44V151.4C249.14 152.906 248.559 154.23 247.515 155.293C246.467 156.447 245.081 157 243.54 157C241.983 157 240.59 156.438 239.486 155.334L239.445 155.293L239.406 155.249C238.441 154.164 237.94 152.852 237.94 151.4V117.8C237.94 114.734 237.455 111.979 236.512 109.514C235.604 107.139 234.199 105.305 232.298 103.947C230.501 102.664 227.953 101.92 224.46 101.92C221.524 101.92 218.685 102.632 215.921 104.085C213.24 105.536 211.042 107.482 209.306 109.937C207.697 112.322 206.9 114.927 206.9 117.8V151.4C206.9 152.906 206.319 154.23 205.275 155.293C204.227 156.447 202.841 157 201.3 157C199.743 157 198.35 156.438 197.246 155.334L197.205 155.293L197.165 155.249C196.201 154.164 195.7 152.852 195.7 151.4V117.44C195.7 114.355 195.249 111.631 194.381 109.243C193.551 106.962 192.233 105.225 190.429 103.956L190.409 103.942L190.39 103.927C188.681 102.661 186.227 101.92 182.82 101.92C179.881 101.92 177.087 102.633 174.411 104.079L174.403 104.084L174.394 104.089C171.799 105.458 169.686 107.32 168.033 109.687C166.507 111.982 165.74 114.548 165.74 117.44V151.4C165.74 152.925 165.144 154.264 164.075 155.334C163.005 156.404 161.665 157 160.14 157C158.551 157 157.088 156.467 156.005 155.249C155.041 154.164 154.54 152.852 154.54 151.4V97.64C154.54 96.1883 155.041 94.876 156.005 93.7913L156.045 93.7473L156.086 93.7058C157.19 92.6018 158.583 92.04 160.14 92.04C161.681 92.04 163.067 92.5932 164.115 93.7466C165.159 94.8096 165.74 96.1342 165.74 97.64V98.9875ZM275.193 102.313C276.746 100.421 278.52 98.8237 280.513 97.52C282.593 96.08 284.873 95 287.353 94.28C289.833 93.56 292.433 93.2 295.153 93.2C300.593 93.2 305.393 94.56 309.553 97.28C313.793 99.92 317.153 103.6 319.633 108.32C322.113 112.96 323.353 118.32 323.353 124.4C323.353 130.48 322.113 135.88 319.633 140.6C317.153 145.32 313.793 149.04 309.553 151.76C305.313 154.48 300.553 155.84 295.273 155.84C292.473 155.84 289.793 155.44 287.233 154.64C284.753 153.76 282.473 152.6 280.393 151.16C278.451 149.815 276.717 148.261 275.193 146.497C275.086 146.372 274.979 146.247 274.873 146.12C274.268 145.363 273.708 144.582 273.193 143.779V175.4C273.193 176.36 272.833 177.2 272.113 177.92C271.473 178.64 270.633 179 269.593 179C268.553 179 267.673 178.64 266.953 177.92C266.313 177.2 265.993 176.36 265.993 175.4V97.16C265.993 96.12 266.313 95.24 266.953 94.52C267.593 93.8 268.473 93.44 269.593 93.44C270.633 93.44 271.473 93.8 272.113 94.52C272.833 95.24 273.193 96.12 273.193 97.16V105.262C273.723 104.307 274.323 103.406 274.993 102.56C275.06 102.477 275.126 102.395 275.193 102.313ZM274.669 113.267C273.285 116.527 272.593 120.238 272.593 124.4C272.593 128.165 273.179 131.624 274.349 134.778C274.603 135.462 274.885 136.132 275.193 136.787C275.246 136.898 275.299 137.009 275.353 137.12C277.273 140.88 279.873 143.84 283.153 146C286.433 148.08 290.233 149.12 294.553 149.12C298.793 149.12 302.513 148.08 305.713 146C308.993 143.84 311.593 140.88 313.513 137.12C315.433 133.36 316.393 129.12 316.393 124.4C316.393 119.68 315.433 115.48 313.513 111.8C311.593 108.12 308.993 105.24 305.713 103.16C302.513 101 298.793 99.92 294.553 99.92C290.233 99.92 286.433 101 283.153 103.16C279.873 105.24 277.273 108.12 275.353 111.8C275.299 111.906 275.246 112.012 275.193 112.119C275.009 112.495 274.834 112.878 274.669 113.267ZM277.132 112.716C275.462 115.985 274.593 119.86 274.593 124.4C274.593 128.848 275.457 132.776 277.142 136.226C278.913 139.688 281.281 142.368 284.239 144.32C287.16 146.169 290.575 147.12 294.553 147.12C298.449 147.12 301.781 146.17 304.62 144.325C307.586 142.37 309.959 139.683 311.732 136.21C313.492 132.764 314.393 128.842 314.393 124.4C314.393 119.958 313.492 116.082 311.74 112.725C309.971 109.335 307.605 106.728 304.642 104.849L304.618 104.834L304.594 104.818C301.757 102.903 298.436 101.92 294.553 101.92C290.584 101.92 287.174 102.907 284.253 104.83L284.239 104.84L284.225 104.849C281.265 106.726 278.9 109.33 277.132 112.716ZM275.193 99.3193C276.474 98.0119 277.875 96.8579 279.397 95.8605C281.652 94.3026 284.122 93.1357 286.796 92.3593C289.466 91.584 292.255 91.2 295.153 91.2C300.936 91.2 306.118 92.6493 310.629 95.594C315.181 98.4326 318.771 102.381 321.401 107.383C324.056 112.354 325.353 118.045 325.353 124.4C325.353 130.758 324.055 136.485 321.404 141.53C318.773 146.538 315.182 150.525 310.633 153.443C306.055 156.38 300.917 157.84 295.273 157.84C292.28 157.84 289.398 157.412 286.637 156.549L286.601 156.538L286.565 156.525C283.925 155.588 281.486 154.349 279.255 152.804C277.792 151.791 276.437 150.666 275.193 149.428V175.4C275.193 176.906 274.612 178.23 273.568 179.293C272.52 180.447 271.134 181 269.593 181C268.036 181 266.643 180.438 265.539 179.334L265.498 179.293L265.459 179.249C264.494 178.164 263.993 176.852 263.993 175.4V97.16C263.993 95.6725 264.466 94.3078 265.459 93.1913C266.541 91.9733 268.005 91.44 269.593 91.44C271.134 91.44 272.521 91.9933 273.568 93.1468C274.645 94.2442 275.193 95.6215 275.193 97.16V99.3193ZM393.686 141.672L393.679 141.684C390.876 146.78 387.036 150.838 382.173 153.824L382.162 153.831L382.151 153.838C377.251 156.761 371.69 158.2 365.527 158.2C359.512 158.2 354 156.755 349.035 153.845L349.018 153.835L349 153.824C344.143 150.842 340.268 146.791 337.387 141.706L337.377 141.689L337.368 141.672C334.555 136.472 333.167 130.66 333.167 124.28C333.167 117.826 334.553 112.007 337.374 106.876L337.381 106.865L337.387 106.854C340.268 101.769 344.143 97.7182 349 94.7357L349.007 94.7316L349.014 94.7276C353.981 91.7302 359.501 90.24 365.527 90.24C371.701 90.24 377.27 91.7248 382.173 94.7357C387.036 97.7216 390.876 101.78 393.679 106.876C396.501 112.007 397.887 117.826 397.887 124.28C397.887 130.66 396.499 136.472 393.686 141.672ZM383.917 112.252L383.913 112.244C382.072 108.709 379.557 105.986 376.361 104.025L376.338 104.011L376.316 103.996C373.23 101.987 369.656 100.96 365.527 100.96C361.573 100.96 358.028 101.979 354.841 104.007L354.827 104.016L354.813 104.025C351.611 105.989 349.051 108.72 347.128 112.268C345.306 115.697 344.367 119.683 344.367 124.28C344.367 128.874 345.305 132.858 347.124 136.285C349.044 139.751 351.608 142.492 354.827 144.544C358.014 146.496 361.564 147.48 365.527 147.48C369.669 147.48 373.251 146.487 376.339 144.549C379.559 142.499 382.081 139.76 383.921 136.301C385.746 132.87 386.687 128.881 386.687 124.28C386.687 119.679 385.746 115.69 383.921 112.259L383.917 112.252ZM353.767 146.24C350.247 144 347.447 141 345.367 137.24C343.367 133.48 342.367 129.16 342.367 124.28C342.367 119.4 343.367 115.08 345.367 111.32C347.447 107.48 350.247 104.48 353.767 102.32C357.287 100.08 361.207 98.96 365.527 98.96C370.007 98.96 373.967 100.08 377.407 102.32C380.927 104.48 383.687 107.48 385.687 111.32C387.687 115.08 388.687 119.4 388.687 124.28C388.687 129.16 387.687 133.48 385.687 137.24C383.687 141 380.927 144 377.407 146.24C373.967 148.4 370.007 149.48 365.527 149.48C361.207 149.48 357.287 148.4 353.767 146.24ZM412.149 157C410.319 157 408.656 156.383 407.481 154.946C406.414 153.642 405.949 152.047 405.949 150.32V147.8C405.949 146.036 406.393 144.378 407.542 143.102C408.737 141.775 410.382 141.24 412.149 141.24H412.989C414.756 141.24 416.401 141.775 417.595 143.102C418.744 144.378 419.189 146.036 419.189 147.8V150.32C419.189 152.047 418.724 153.642 417.657 154.946C416.481 156.383 414.818 157 412.989 157H412.149ZM428.1 167.817L428.119 167.805C429.414 167.028 430.455 165.962 431.252 164.568C432.002 163.254 432.428 161.575 432.428 159.44V97.52C432.428 96.0683 432.929 94.756 433.894 93.6713L433.933 93.6273L433.974 93.5858C435.078 92.4818 436.471 91.92 438.028 91.92C439.569 91.92 440.955 92.4732 442.003 93.6266C443.048 94.6896 443.628 96.0142 443.628 97.52V160.52C443.628 164.675 442.632 168.324 440.529 171.355C438.605 174.319 436.172 176.629 433.226 178.236C430.334 179.813 427.367 180.64 424.348 180.64C422.893 180.64 421.508 180.18 420.489 179.048C419.515 178.053 418.988 176.805 418.988 175.4V174.92C418.988 173.466 419.499 172.126 420.631 171.135C421.518 170.359 422.547 169.836 423.698 169.603C425.315 169.249 426.771 168.656 428.08 167.829L428.1 167.817ZM424.108 171.56C423.308 171.72 422.588 172.08 421.948 172.64C421.308 173.2 420.988 173.96 420.988 174.92V175.4C420.988 176.28 421.308 177.04 421.948 177.68C422.508 178.32 423.308 178.64 424.348 178.64C426.988 178.64 429.628 177.92 432.268 176.48C434.908 175.04 437.108 172.96 438.868 170.24C440.708 167.6 441.628 164.36 441.628 160.52V97.52C441.628 96.56 441.268 95.72 440.548 95C439.908 94.28 439.068 93.92 438.028 93.92C436.988 93.92 436.108 94.28 435.388 95C434.748 95.72 434.428 96.56 434.428 97.52V159.44C434.428 161.84 433.948 163.88 432.988 165.56C432.028 167.24 430.748 168.56 429.148 169.52C427.628 170.48 425.948 171.16 424.108 171.56ZM432.845 84.8447L432.774 84.7742C431.504 83.5039 430.988 81.8185 430.988 80V78.8C430.988 76.9378 431.576 75.2169 433.033 74.0196C434.442 72.8471 436.217 72.36 438.148 72.36C439.977 72.36 441.689 72.8382 442.972 74.076C444.379 75.2707 444.948 76.9669 444.948 78.8V80C444.948 81.8747 444.357 83.5821 442.974 84.8399L442.966 84.8466C441.656 86.0262 439.888 86.44 438.028 86.44C436.1 86.44 434.295 86.0315 432.922 84.9079L432.845 84.8447ZM441.628 75.56C440.828 74.76 439.668 74.36 438.148 74.36C436.548 74.36 435.268 74.76 434.308 75.56C433.428 76.28 432.988 77.36 432.988 78.8V80C432.988 81.44 433.388 82.56 434.188 83.36C435.068 84.08 436.348 84.44 438.028 84.44C439.628 84.44 440.828 84.08 441.628 83.36C442.508 82.56 442.948 81.44 442.948 80V78.8C442.948 77.36 442.508 76.28 441.628 75.56ZM460.115 146.46L460.068 146.389C459.276 145.202 458.772 143.901 458.772 142.52V142.437L458.779 142.354C458.917 140.702 459.827 139.442 461.164 138.609C462.163 137.795 463.367 137.4 464.683 137.529C466.095 137.66 467.311 138.31 468.306 139.306L468.397 139.397L468.476 139.498C470.472 142.086 472.865 144.187 475.667 145.813C478.438 147.299 481.771 148.08 485.732 148.08C487.747 148.08 489.727 147.758 491.679 147.109C493.645 146.405 495.193 145.413 496.382 144.163C497.442 142.977 498.012 141.477 498.012 139.52C498.012 137.451 497.425 135.977 496.4 134.895C495.202 133.631 493.593 132.583 491.503 131.79L491.492 131.786L491.481 131.782C489.328 130.936 487.011 130.201 484.527 129.58L484.514 129.577L484.5 129.573C481.736 128.842 479.049 128.028 476.442 127.131L476.416 127.122L476.39 127.113C473.7 126.104 471.275 124.874 469.128 123.414L469.089 123.388L469.052 123.36C466.931 121.769 465.194 119.857 463.857 117.629C462.431 115.253 461.772 112.438 461.772 109.28C461.772 105.53 462.807 102.156 464.908 99.2327C466.968 96.3674 469.729 94.1554 473.134 92.5841L473.143 92.5801L473.151 92.5762C476.643 91.0049 480.529 90.24 484.772 90.24C486.948 90.24 489.256 90.543 491.69 91.1282C494.2 91.651 496.65 92.5584 499.037 93.837C501.493 95.1528 503.67 96.9384 505.569 99.1692C506.599 100.228 507.172 101.545 507.172 103.04C507.172 104.611 506.43 105.919 505.31 106.927L505.244 106.986L505.172 107.04C504.151 107.806 502.959 108.16 501.692 108.16C500.279 108.16 499.066 107.563 498.155 106.526C496.431 104.587 494.395 103.124 492.031 102.121C489.653 101.112 487.08 100.6 484.292 100.6C482.207 100.6 480.252 100.958 478.41 101.667L478.39 101.674L478.37 101.682C476.668 102.294 475.272 103.232 474.143 104.494C473.189 105.56 472.625 107.028 472.612 109.091C472.754 110.956 473.381 112.332 474.408 113.367C475.703 114.588 477.422 115.657 479.625 116.539C482.018 117.465 484.698 118.32 487.669 119.103C490.292 119.759 492.8 120.54 495.191 121.446C497.733 122.379 499.983 123.581 501.916 125.067C503.995 126.523 505.633 128.392 506.812 130.65C508.135 133.025 508.732 135.898 508.732 139.16C508.732 143.08 507.61 146.557 505.32 149.496C503.164 152.365 500.265 154.528 496.698 156.007C493.147 157.48 489.242 158.2 485.012 158.2C480.425 158.2 475.967 157.307 471.651 155.529L471.638 155.524C467.283 153.695 463.464 150.667 460.167 146.525L460.115 146.46ZM503.732 148.28C505.732 145.72 506.732 142.68 506.732 139.16C506.732 136.12 506.172 133.6 505.052 131.6C504.012 129.6 502.572 127.96 500.732 126.68C498.972 125.32 496.892 124.2 494.492 123.32C492.172 122.44 489.732 121.68 487.172 121.04C484.132 120.24 481.372 119.36 478.892 118.4C476.492 117.44 474.532 116.24 473.012 114.8C471.572 113.36 470.772 111.48 470.612 109.16C470.612 106.68 471.292 104.68 472.652 103.16C474.012 101.64 475.692 100.52 477.692 99.8C479.772 99 481.972 98.6 484.292 98.6C487.332 98.6 490.172 99.16 492.812 100.28C495.452 101.4 497.732 103.04 499.652 105.2C500.212 105.84 500.892 106.16 501.692 106.16C502.572 106.16 503.332 105.92 503.972 105.44C504.772 104.72 505.172 103.92 505.172 103.04C505.172 102.08 504.812 101.24 504.092 100.52C502.332 98.44 500.332 96.8 498.092 95.6C495.852 94.4 493.572 93.56 491.252 93.08C488.932 92.52 486.772 92.24 484.772 92.24C480.772 92.24 477.172 92.96 473.972 94.4C470.852 95.84 468.372 97.84 466.532 100.4C464.692 102.96 463.772 105.92 463.772 109.28C463.772 112.16 464.372 114.6 465.572 116.6C466.772 118.6 468.332 120.32 470.252 121.76C472.252 123.12 474.532 124.28 477.092 125.24C479.652 126.12 482.292 126.92 485.012 127.64C487.572 128.28 489.972 129.04 492.212 129.92C494.532 130.8 496.412 132 497.852 133.52C499.292 135.04 500.012 137.04 500.012 139.52C500.012 141.92 499.292 143.92 497.852 145.52C496.412 147.04 494.572 148.2 492.332 149C490.172 149.72 487.972 150.08 485.732 150.08C481.492 150.08 477.812 149.24 474.692 147.56C471.652 145.8 469.052 143.52 466.892 140.72C466.172 140 465.372 139.6 464.492 139.52C463.692 139.44 462.972 139.68 462.332 140.24C461.372 140.8 460.852 141.56 460.772 142.52C460.772 143.4 461.092 144.32 461.732 145.28C464.852 149.2 468.412 152 472.412 153.68C476.492 155.36 480.692 156.2 485.012 156.2C489.012 156.2 492.652 155.52 495.932 154.16C499.212 152.8 501.812 150.84 503.732 148.28ZM137.278 140.72C139.918 135.84 141.238 130.36 141.238 124.28C141.238 118.12 139.918 112.64 137.278 107.84C134.638 103.04 131.038 99.24 126.478 96.44C121.918 93.64 116.718 92.24 110.878 92.24C105.198 92.24 100.038 93.64 95.3984 96.44C90.8384 99.24 87.1984 103.04 84.4784 107.84C81.8384 112.64 80.5184 118.12 80.5184 124.28C80.5184 130.36 81.8384 135.84 84.4784 140.72C87.1984 145.52 90.8384 149.32 95.3984 152.12C100.038 154.84 105.198 156.2 110.878 156.2C116.718 156.2 121.918 154.84 126.478 152.12C131.038 149.32 134.638 145.52 137.278 140.72ZM391.927 140.72C394.567 135.84 395.887 130.36 395.887 124.28C395.887 118.12 394.567 112.64 391.927 107.84C389.287 103.04 385.687 99.24 381.127 96.44C376.567 93.64 371.367 92.24 365.527 92.24C359.847 92.24 354.687 93.64 350.047 96.44C345.487 99.24 341.847 103.04 339.127 107.84C336.487 112.64 335.167 118.12 335.167 124.28C335.167 130.36 336.487 135.84 339.127 140.72C341.847 145.52 345.487 149.32 350.047 152.12C354.687 154.84 359.847 156.2 365.527 156.2C371.367 156.2 376.567 154.84 381.127 152.12C385.687 149.32 389.287 145.52 391.927 140.72ZM409.029 153.68C409.749 154.56 410.789 155 412.149 155H412.989C414.349 155 415.389 154.56 416.109 153.68C416.829 152.8 417.189 151.68 417.189 150.32V147.8C417.189 146.36 416.829 145.24 416.109 144.44C415.389 143.64 414.349 143.24 412.989 143.24H412.149C410.789 143.24 409.749 143.64 409.029 144.44C408.309 145.24 407.949 146.36 407.949 147.8V150.32C407.949 151.68 408.309 152.8 409.029 153.68Z" fill="white"/>
</g>
</svg>
