<svg width="600" height="220" viewBox="0 0 600 220" fill="none" xmlns="http://www.w3.org/2000/svg">
<g id="logo">

<path id="Compo.js" d="M114.6 77.24C115.56 77.88 116.12 78.72 116.28 79.76C116.44 80.72 116.2 81.68 115.56 82.64C115 83.36 114.28 83.76 113.4 83.84C112.52 83.92 111.68 83.76 110.88 83.36C107.84 81.36 104.56 79.8 101.04 78.68C97.6 77.56 93.88 77 89.88 77C85 77 80.44 77.88 76.2 79.64C72.04 81.32 68.4 83.8 65.28 87.08C62.16 90.28 59.72 94.08 57.96 98.48C56.28 102.88 55.44 107.72 55.44 113C55.44 118.44 56.32 123.4 58.08 127.88C59.84 132.28 62.28 136.08 65.4 139.28C68.6 142.48 72.28 144.92 76.44 146.6C80.6 148.28 85.08 149.12 89.88 149.12C93.8 149.12 97.48 148.56 100.92 147.44C104.44 146.32 107.72 144.8 110.76 142.88C111.56 142.4 112.4 142.24 113.28 142.4C114.24 142.48 115 142.92 115.56 143.72C116.28 144.6 116.52 145.56 116.28 146.6C116.12 147.56 115.6 148.32 114.72 148.88C112.72 150.16 110.36 151.36 107.64 152.48C104.92 153.6 102.04 154.48 99 155.12C95.96 155.84 92.92 156.2 89.88 156.2C84.12 156.2 78.72 155.16 73.68 153.08C68.64 151 64.16 148.08 60.24 144.32C56.32 140.48 53.24 135.92 51 130.64C48.84 125.36 47.76 119.48 47.76 113C47.76 106.76 48.84 101.04 51 95.84C53.16 90.56 56.16 86 60 82.16C63.84 78.32 68.32 75.32 73.44 73.16C78.56 71 84.04 69.92 89.88 69.92C94.44 69.92 98.84 70.56 103.08 71.84C107.32 73.12 111.16 74.92 114.6 77.24ZM186.998 124.28C186.998 130.36 185.678 135.84 183.038 140.72C180.398 145.52 176.798 149.32 172.238 152.12C167.678 154.84 162.478 156.2 156.638 156.2C150.958 156.2 145.798 154.84 141.158 152.12C136.598 149.32 132.958 145.52 130.238 140.72C127.598 135.84 126.278 130.36 126.278 124.28C126.278 118.12 127.598 112.64 130.238 107.84C132.958 103.04 136.598 99.24 141.158 96.44C145.798 93.64 150.958 92.24 156.638 92.24C162.478 92.24 167.678 93.64 172.238 96.44C176.798 99.24 180.398 103.04 183.038 107.84C185.678 112.64 186.998 118.12 186.998 124.28ZM179.798 124.28C179.798 119.4 178.798 115.08 176.798 111.32C174.798 107.48 172.038 104.48 168.518 102.32C165.078 100.08 161.118 98.96 156.638 98.96C152.318 98.96 148.398 100.08 144.878 102.32C141.358 104.48 138.558 107.48 136.478 111.32C134.478 115.08 133.478 119.4 133.478 124.28C133.478 129.16 134.478 133.48 136.478 137.24C138.558 141 141.358 144 144.878 146.24C148.398 148.4 152.318 149.48 156.638 149.48C161.118 149.48 165.078 148.4 168.518 146.24C172.038 144 174.798 141 176.798 137.24C178.798 133.48 179.798 129.16 179.798 124.28ZM229.9 93.2C234.86 93.2 239.1 94.52 242.62 97.16C246.14 99.72 248.54 103.56 249.82 108.68L248.14 109.16L248.86 107C249.9 104.6 251.62 102.36 254.02 100.28C256.5 98.12 259.3 96.4 262.42 95.12C265.54 93.84 268.7 93.2 271.9 93.2C276.94 93.2 280.98 94.28 284.02 96.44C287.14 98.6 289.38 101.52 290.74 105.2C292.18 108.8 292.9 112.88 292.9 117.44V151.4C292.9 152.36 292.54 153.2 291.82 153.92C291.18 154.64 290.34 155 289.3 155C288.26 155 287.38 154.64 286.66 153.92C286.02 153.2 285.7 152.36 285.7 151.4V117.8C285.7 114.52 285.18 111.52 284.14 108.8C283.1 106.08 281.46 103.92 279.22 102.32C276.98 100.72 273.98 99.92 270.22 99.92C266.94 99.92 263.78 100.72 260.74 102.32C257.78 103.92 255.34 106.08 253.42 108.8C251.58 111.52 250.66 114.52 250.66 117.8V151.4C250.66 152.36 250.3 153.2 249.58 153.92C248.94 154.64 248.1 155 247.06 155C246.02 155 245.14 154.64 244.42 153.92C243.78 153.2 243.46 152.36 243.46 151.4V117.44C243.46 114.16 242.98 111.2 242.02 108.56C241.06 105.92 239.5 103.84 237.34 102.32C235.18 100.72 232.26 99.92 228.58 99.92C225.3 99.92 222.18 100.72 219.22 102.32C216.34 103.84 213.98 105.92 212.14 108.56C210.38 111.2 209.5 114.16 209.5 117.44V151.4C209.5 152.36 209.14 153.2 208.42 153.92C207.7 154.64 206.86 155 205.9 155C204.78 155 203.9 154.64 203.26 153.92C202.62 153.2 202.3 152.36 202.3 151.4V97.64C202.3 96.68 202.62 95.84 203.26 95.12C203.98 94.4 204.86 94.04 205.9 94.04C206.94 94.04 207.78 94.4 208.42 95.12C209.14 95.84 209.5 96.68 209.5 97.64V108.8L206.26 113.24C206.5 110.84 207.26 108.44 208.54 106.04C209.9 103.64 211.66 101.48 213.82 99.56C215.98 97.64 218.42 96.12 221.14 95C223.94 93.8 226.86 93.2 229.9 93.2ZM340.913 93.2C346.353 93.2 351.153 94.56 355.313 97.28C359.553 99.92 362.913 103.6 365.393 108.32C367.873 112.96 369.113 118.32 369.113 124.4C369.113 130.48 367.873 135.88 365.393 140.6C362.913 145.32 359.553 149.04 355.313 151.76C351.073 154.48 346.313 155.84 341.033 155.84C338.233 155.84 335.553 155.44 332.993 154.64C330.513 153.76 328.233 152.6 326.153 151.16C324.073 149.72 322.233 148.04 320.633 146.12C319.033 144.12 317.753 141.96 316.793 139.64L318.953 138.08V175.4C318.953 176.36 318.593 177.2 317.873 177.92C317.233 178.64 316.393 179 315.353 179C314.313 179 313.433 178.64 312.713 177.92C312.073 177.2 311.753 176.36 311.753 175.4V97.16C311.753 96.12 312.073 95.24 312.713 94.52C313.353 93.8 314.233 93.44 315.353 93.44C316.393 93.44 317.233 93.8 317.873 94.52C318.593 95.24 318.953 96.12 318.953 97.16V110.12L317.273 109.16C318.073 106.68 319.233 104.48 320.753 102.56C322.353 100.56 324.193 98.88 326.273 97.52C328.353 96.08 330.633 95 333.113 94.28C335.593 93.56 338.193 93.2 340.913 93.2ZM340.313 99.92C335.993 99.92 332.193 101 328.913 103.16C325.633 105.24 323.033 108.12 321.113 111.8C319.273 115.4 318.353 119.6 318.353 124.4C318.353 129.12 319.273 133.36 321.113 137.12C323.033 140.88 325.633 143.84 328.913 146C332.193 148.08 335.993 149.12 340.313 149.12C344.553 149.12 348.273 148.08 351.473 146C354.753 143.84 357.353 140.88 359.273 137.12C361.193 133.36 362.153 129.12 362.153 124.4C362.153 119.68 361.193 115.48 359.273 111.8C357.353 108.12 354.753 105.24 351.473 103.16C348.273 101 344.553 99.92 340.313 99.92ZM441.647 124.28C441.647 130.36 440.327 135.84 437.687 140.72C435.047 145.52 431.447 149.32 426.887 152.12C422.327 154.84 417.127 156.2 411.287 156.2C405.607 156.2 400.447 154.84 395.807 152.12C391.247 149.32 387.607 145.52 384.887 140.72C382.247 135.84 380.927 130.36 380.927 124.28C380.927 118.12 382.247 112.64 384.887 107.84C387.607 103.04 391.247 99.24 395.807 96.44C400.447 93.64 405.607 92.24 411.287 92.24C417.127 92.24 422.327 93.64 426.887 96.44C431.447 99.24 435.047 103.04 437.687 107.84C440.327 112.64 441.647 118.12 441.647 124.28ZM434.447 124.28C434.447 119.4 433.447 115.08 431.447 111.32C429.447 107.48 426.687 104.48 423.167 102.32C419.727 100.08 415.767 98.96 411.287 98.96C406.967 98.96 403.047 100.08 399.527 102.32C396.007 104.48 393.207 107.48 391.127 111.32C389.127 115.08 388.127 119.4 388.127 124.28C388.127 129.16 389.127 133.48 391.127 137.24C393.207 141 396.007 144 399.527 146.24C403.047 148.4 406.967 149.48 411.287 149.48C415.767 149.48 419.727 148.4 423.167 146.24C426.687 144 429.447 141 431.447 137.24C433.447 133.48 434.447 129.16 434.447 124.28ZM457.909 155C456.549 155 455.509 154.56 454.789 153.68C454.069 152.8 453.709 151.68 453.709 150.32V147.8C453.709 146.36 454.069 145.24 454.789 144.44C455.509 143.64 456.549 143.24 457.909 143.24H458.749C460.109 143.24 461.149 143.64 461.869 144.44C462.589 145.24 462.949 146.36 462.949 147.8V150.32C462.949 151.68 462.589 152.8 461.869 153.68C461.149 154.56 460.109 155 458.749 155H457.909ZM487.388 160.52C487.388 164.36 486.468 167.6 484.628 170.24C482.868 172.96 480.668 175.04 478.028 176.48C475.388 177.92 472.748 178.64 470.108 178.64C469.068 178.64 468.268 178.32 467.708 177.68C467.068 177.04 466.748 176.28 466.748 175.4V174.92C466.748 173.96 467.068 173.2 467.708 172.64C468.348 172.08 469.068 171.72 469.868 171.56C471.708 171.16 473.388 170.48 474.908 169.52C476.508 168.56 477.788 167.24 478.748 165.56C479.708 163.88 480.188 161.84 480.188 159.44V97.52C480.188 96.56 480.508 95.72 481.148 95C481.868 94.28 482.748 93.92 483.788 93.92C484.828 93.92 485.668 94.28 486.308 95C487.028 95.72 487.388 96.56 487.388 97.52V160.52ZM483.788 84.44C482.108 84.44 480.828 84.08 479.948 83.36C479.148 82.56 478.748 81.44 478.748 80V78.8C478.748 77.36 479.188 76.28 480.068 75.56C481.028 74.76 482.308 74.36 483.908 74.36C485.428 74.36 486.588 74.76 487.388 75.56C488.268 76.28 488.708 77.36 488.708 78.8V80C488.708 81.44 488.268 82.56 487.388 83.36C486.588 84.08 485.388 84.44 483.788 84.44ZM507.492 145.28C506.852 144.32 506.532 143.4 506.532 142.52C506.612 141.56 507.132 140.8 508.092 140.24C508.732 139.68 509.452 139.44 510.252 139.52C511.132 139.6 511.932 140 512.652 140.72C514.812 143.52 517.412 145.8 520.452 147.56C523.572 149.24 527.252 150.08 531.492 150.08C533.732 150.08 535.932 149.72 538.092 149C540.332 148.2 542.172 147.04 543.612 145.52C545.052 143.92 545.772 141.92 545.772 139.52C545.772 137.04 545.052 135.04 543.612 133.52C542.172 132 540.292 130.8 537.972 129.92C535.732 129.04 533.332 128.28 530.772 127.64C528.052 126.92 525.412 126.12 522.852 125.24C520.292 124.28 518.012 123.12 516.012 121.76C514.092 120.32 512.532 118.6 511.332 116.6C510.132 114.6 509.532 112.16 509.532 109.28C509.532 105.92 510.452 102.96 512.292 100.4C514.132 97.84 516.612 95.84 519.732 94.4C522.932 92.96 526.532 92.24 530.532 92.24C532.532 92.24 534.692 92.52 537.012 93.08C539.332 93.56 541.612 94.4 543.852 95.6C546.092 96.8 548.092 98.44 549.852 100.52C550.572 101.24 550.932 102.08 550.932 103.04C550.932 103.92 550.532 104.72 549.732 105.44C549.092 105.92 548.332 106.16 547.452 106.16C546.652 106.16 545.972 105.84 545.412 105.2C543.492 103.04 541.212 101.4 538.572 100.28C535.932 99.16 533.092 98.6 530.052 98.6C527.732 98.6 525.532 99 523.452 99.8C521.452 100.52 519.772 101.64 518.412 103.16C517.052 104.68 516.372 106.68 516.372 109.16C516.532 111.48 517.332 113.36 518.772 114.8C520.292 116.24 522.252 117.44 524.652 118.4C527.132 119.36 529.892 120.24 532.932 121.04C535.492 121.68 537.932 122.44 540.252 123.32C542.652 124.2 544.732 125.32 546.492 126.68C548.332 127.96 549.772 129.6 550.812 131.6C551.932 133.6 552.492 136.12 552.492 139.16C552.492 142.68 551.492 145.72 549.492 148.28C547.572 150.84 544.972 152.8 541.692 154.16C538.412 155.52 534.772 156.2 530.772 156.2C526.452 156.2 522.252 155.36 518.172 153.68C514.172 152 510.612 149.2 507.492 145.28Z" fill="#333333"/>
</g>
</svg>
